<!-- @formatter:off -->
<svg xmlns="http://www.w3.org/2000/svg" >
    <defs>
        <svg id="calendar" width="24" height="24" viewBox="0 0 24 24" fill="none" xmlns="http://www.w3.org/2000/svg">
            <path d="M4 4H20V18C20 19.1046 19.1046 20 18 20H6C4.89543 20 4 19.1046 4 18V4Z" stroke="#FF595A" stroke-width="1.5" stroke-linecap="round" stroke-linejoin="round"/>
            <path d="M4 8H20" stroke="#FF595A" stroke-width="1.5" stroke-linecap="round" stroke-linejoin="round"/>
            <path d="M16 3V5" stroke="#FF595A" stroke-width="1.5" stroke-linecap="round" stroke-linejoin="round"/>
            <path d="M8 3V5" stroke="#FF595A" stroke-width="1.5" stroke-linecap="round" stroke-linejoin="round"/>
            </svg>
            
        <svg id="user" width="24" height="24" viewBox="0 0 24 24" fill="none" xmlns="http://www.w3.org/2000/svg">
            <circle cx="11.5788" cy="7.27803" r="4.77803" stroke="#FF595A" stroke-width="1.5" stroke-linecap="round" stroke-linejoin="round"/>
            <path fill-rule="evenodd" clip-rule="evenodd" d="M4.00002 18.7014C3.99873 18.3655 4.07385 18.0337 4.2197 17.7311C4.67736 16.8158 5.96798 16.3307 7.03892 16.111C7.81128 15.9462 8.59431 15.836 9.38217 15.7815C10.8408 15.6533 12.3079 15.6533 13.7666 15.7815C14.5544 15.8367 15.3374 15.9468 16.1099 16.111C17.1808 16.3307 18.4714 16.77 18.9291 17.7311C19.2224 18.3479 19.2224 19.064 18.9291 19.6808C18.4714 20.6419 17.1808 21.0812 16.1099 21.2918C15.3384 21.4634 14.5551 21.5766 13.7666 21.6304C12.5794 21.7311 11.3866 21.7494 10.1968 21.6854C9.92221 21.6854 9.65677 21.6854 9.38217 21.6304C8.59663 21.5773 7.81632 21.4641 7.04807 21.2918C5.96798 21.0812 4.68652 20.6419 4.2197 19.6808C4.0746 19.3747 3.99955 19.0401 4.00002 18.7014Z" stroke="#FF595A" stroke-width="1.5" stroke-linecap="round" stroke-linejoin="round"/>
        </svg>

        <svg id="calendar-bg" width="30" height="30" viewBox="0 0 30 30" fill="none" xmlns="http://www.w3.org/2000/svg">
            <path opacity="0.4" fill-rule="evenodd" clip-rule="evenodd" d="M11.1838 6.35192H18.8621V4.56415H11.1838V6.35192ZM9.43707 4.63757V4.64647C8.83768 4.70098 8.24473 4.82001 7.66786 4.99912V4.99245C7.65071 4.99966 7.63457 5.00521 7.61907 5.01054C7.59873 5.01753 7.57951 5.02414 7.56064 5.03361C7.51453 5.04474 7.4695 5.06142 7.42661 5.08256C7.30008 5.12372 7.17356 5.17267 7.05454 5.22274C7.02291 5.23497 6.99128 5.24916 6.95965 5.26334C6.92801 5.27753 6.89638 5.29171 6.86475 5.30395C6.82133 5.32453 6.77602 5.34706 6.73072 5.36958C6.68542 5.39211 6.64012 5.41464 6.59669 5.43522L6.38224 5.55871C6.34259 5.57893 6.30589 5.60265 6.26844 5.62685C6.24614 5.64126 6.22357 5.65584 6.19996 5.66996C5.87721 5.87799 5.57806 6.12163 5.30785 6.39864L5.29177 6.41532C5.25628 6.4567 5.22094 6.49684 5.18608 6.53643C5.1272 6.60331 5.06968 6.66864 5.01513 6.73572L4.99905 6.7513C4.12195 7.96169 3.68233 9.45354 3.75846 10.9654V11.4449H5.49013V10.961C5.49013 8.8539 6.16136 7.54228 7.655 6.87033C8.22543 6.62892 8.82803 6.47985 9.44136 6.42534H9.45744V4.64535L9.43707 4.63757ZM24.9975 6.72905L25.005 6.74462C25.881 7.95613 26.3185 9.44909 26.2413 10.961V11.4449H24.5107V10.9487C24.5471 10.0565 24.3681 9.16874 23.9885 8.36663C23.6239 7.68023 23.0406 7.14734 22.3362 6.8581C21.7754 6.61669 21.1814 6.4665 20.5755 6.4131V4.64202C21.1749 4.69764 21.7679 4.81556 22.3458 4.99468V4.98578C22.3783 5.00051 22.4031 5.00927 22.4456 5.02431L22.453 5.02694C22.4728 5.03392 22.4912 5.0409 22.5094 5.0478C22.5347 5.05739 22.5596 5.06683 22.5871 5.07589C22.7056 5.11478 22.8165 5.16063 22.9306 5.20779L22.9506 5.21606C23.0032 5.23455 23.0528 5.25748 23.0975 5.27814C23.1119 5.28483 23.1259 5.29128 23.1393 5.29727C23.2336 5.33843 23.3301 5.38738 23.4073 5.42855C23.4588 5.45526 23.509 5.48386 23.556 5.51067C23.5814 5.52517 23.606 5.53915 23.6293 5.55203C23.6677 5.57325 23.7011 5.59595 23.7332 5.61777C23.7567 5.63372 23.7795 5.64919 23.803 5.66328C24.1268 5.87243 24.4292 6.11718 24.7026 6.39196L24.7123 6.40865C24.813 6.50989 24.9085 6.61669 24.9975 6.72905Z" fill="#FF595A"/>
            <path d="M20.6243 3.39616V7.33558C20.6243 7.83193 20.2215 8.23396 19.7243 8.23396C19.227 8.23396 18.8243 7.83193 18.8243 7.33558V3.40514C18.8198 2.90879 19.2203 2.50339 19.7175 2.50002C20.2148 2.49665 20.6209 2.89531 20.6243 3.39167V3.39616Z" fill="#FF595A"/>
            <path d="M11.175 3.41043V7.34011C11.175 7.83862 10.7718 8.24281 10.2744 8.24281C9.77712 8.24281 9.375 7.83862 9.375 7.34011V3.41043C9.375 2.91192 9.77712 2.50885 10.2744 2.50885C10.7718 2.50885 11.175 2.91192 11.175 3.41043Z" fill="#FF595A"/>
            <path fill-rule="evenodd" clip-rule="evenodd" d="M3.75 21.1377V11.4449H26.25V21.1377C26.25 25.3645 23.8895 27.5 19.2114 27.5H10.7779C6.11052 27.5 3.75 25.3645 3.75 21.1377ZM8.82513 16.8335C8.82513 17.4199 9.2865 17.8957 9.85517 17.8957C10.4346 17.8957 10.8959 17.4088 10.8852 16.8224C10.8852 16.236 10.4238 15.7602 9.8659 15.7602H9.85517C9.2865 15.7602 8.82513 16.247 8.82513 16.8335ZM13.9646 16.8335C13.9646 17.4199 14.4367 17.8957 15.0054 17.8957C15.574 17.8957 16.0354 17.4199 16.0354 16.8224C16.0354 16.247 15.574 15.7712 15.0054 15.7602H14.9946C14.426 15.7712 13.9646 16.247 13.9646 16.8335ZM20.1449 17.8957C19.5762 17.8957 19.1148 17.4199 19.1148 16.8335C19.1148 16.247 19.5655 15.7712 20.1449 15.7712C20.7135 15.7712 21.1749 16.247 21.1749 16.8335C21.1749 17.4199 20.7135 17.8957 20.1449 17.8957ZM20.1449 22.4323C19.5762 22.4323 19.1148 21.9565 19.1041 21.37C19.1041 20.7836 19.5655 20.3078 20.1341 20.3078H20.1449C20.7135 20.3078 21.1749 20.7836 21.1749 21.37C21.1749 21.9565 20.7135 22.4323 20.1449 22.4323ZM15.0054 22.4323C14.4367 22.4323 13.9646 21.9565 13.9646 21.3701C13.9646 20.7836 14.426 20.3078 14.9946 20.2968H15.0054C15.574 20.3078 16.0247 20.7836 16.0354 21.359C16.0354 21.9565 15.574 22.4323 15.0054 22.4323ZM9.85515 22.4323C9.28648 22.4323 8.82511 21.9565 8.82511 21.3701C8.81438 20.7836 9.27575 20.2968 9.85515 20.2968C10.4238 20.2968 10.8852 20.7725 10.8852 21.359C10.8852 21.9454 10.4238 22.4323 9.85515 22.4323Z" fill="#FF595A"/>
        </svg>
            
            
        <svg id="check" width="86" height="86" viewBox="0 0 86 86" fill="none" xmlns="http://www.w3.org/2000/svg">
            <path fill-rule="evenodd" clip-rule="evenodd" d="M43 74C60.1208 74 74 60.1208 74 43C74 25.8792 60.1208 12 43 12C25.8792 12 12 25.8792 12 43C12 60.1208 25.8792 74 43 74Z" fill="#FF595A"/>
            <path d="M43 80C63.4345 80 80 63.4345 80 43C80 22.5655 63.4345 6 43 6C22.5655 6 6 22.5655 6 43C6 63.4345 22.5655 80 43 80Z" stroke="#FF595A" stroke-opacity="0.15" stroke-width="12"/>
            <path fill-rule="evenodd" clip-rule="evenodd" d="M51.3458 37.1875L39.9792 48.5541L34.8125 43.3875" fill="#FF595A"/>
            <path d="M51.3458 37.1875L39.9792 48.5541L34.8125 43.3875" stroke="white" stroke-width="4" stroke-linecap="round" stroke-linejoin="round"/>
        </svg>
        <svg id="change-tries" width="21" height="21" viewBox="0 0 21 21" fill="none" xmlns="http://www.w3.org/2000/svg">
            <path d="M16.2945 17.0854C15.9067 17.4432 15.4872 17.765 15.0411 18.0468H17.3905C17.6515 18.0468 17.9019 18.1505 18.0865 18.3351C18.2711 18.5197 18.3748 18.7701 18.3748 19.0312C18.3748 19.2923 18.2711 19.5427 18.0865 19.7273C17.9019 19.9119 17.6515 20.0156 17.3905 20.0156H3.60922C3.34815 20.0156 3.09777 19.9119 2.91316 19.7273C2.72855 19.5427 2.62484 19.2923 2.62484 19.0312C2.62484 18.7701 2.72855 18.5197 2.91316 18.3351C3.09777 18.1505 3.34815 18.0468 3.60922 18.0468H5.95859C5.51249 17.765 5.09294 17.4432 4.70516 17.0854L4.2425 16.6228C2.85431 15.1323 2.04941 13.1917 1.97516 11.1562C1.96531 10.9396 1.96531 10.7198 1.97516 10.5C1.97844 10.431 1.98172 10.3589 1.985 10.2867C2.11058 8.32865 2.91064 6.47461 4.24906 5.03995L4.27859 5.01042C4.41641 4.86276 4.56078 4.71511 4.71172 4.57729C6.14684 3.23959 8.00062 2.43965 9.95844 2.31323C10.0306 2.30995 10.1028 2.30667 10.1717 2.30339C10.3904 2.29298 10.6094 2.29408 10.828 2.30667C11.751 2.33773 12.6624 2.5218 13.5252 2.85136C13.6695 2.90386 13.8106 2.96292 13.9517 3.02526C14.8143 3.40447 15.6064 3.92702 16.2945 4.57073C16.4568 4.71664 16.6113 4.87108 16.7572 5.03339C18.1456 6.52374 18.9505 8.46444 19.0245 10.5C19.0278 10.6082 19.0311 10.7165 19.0311 10.8281C19.0311 10.9364 19.0278 11.0479 19.0245 11.1562C18.949 13.1914 18.1443 15.1316 16.7572 16.6228C16.6128 16.7835 16.4553 16.9378 16.2945 17.0854Z" fill="#333333"/>
            <path d="M13.5252 2.85136C12.6543 9.41641 9.54339 15.4794 4.71828 20.0156H3.60922C3.34815 20.0156 3.09777 19.9119 2.91316 19.7273C2.72855 19.5427 2.62484 19.2923 2.62484 19.0312C2.62484 18.7701 2.72855 18.5197 2.91316 18.3351C3.09777 18.1505 3.34815 18.0468 3.60922 18.0468H5.95859C5.51248 17.765 5.09294 17.4432 4.70516 17.0854L4.2425 16.6228C2.85431 15.1323 2.04941 13.1917 1.97516 11.1562C1.96531 10.9396 1.96531 10.7198 1.97516 10.5C1.97844 10.431 1.98172 10.3589 1.985 10.2867C2.11058 8.32865 2.91064 6.47461 4.24906 5.03995L4.27859 5.01042C4.41641 4.86276 4.56078 4.71511 4.71172 4.57729C6.14684 3.23959 8.00062 2.43965 9.95844 2.31323C10.0306 2.30995 10.1028 2.30667 10.1717 2.30339C10.3904 2.29298 10.6094 2.29408 10.828 2.30667C11.751 2.33773 12.6624 2.5218 13.5252 2.85136Z" fill="#4D4D4D"/>
            <path d="M16.3175 10.8281C16.3167 12.0894 15.9058 13.3162 15.1467 14.3235C14.3876 15.3308 13.3216 16.0639 12.1094 16.4123C10.8972 16.7607 9.60459 16.7054 8.42655 16.2548C7.2485 15.8043 6.24891 14.9829 5.57858 13.9145C4.90824 12.8461 4.60351 11.5887 4.71036 10.3319C4.8172 9.0752 5.32983 7.88729 6.1709 6.9474C7.01198 6.00751 8.13588 5.36661 9.37309 5.12139C10.6103 4.87617 11.8937 5.03992 13.0297 5.58794C14.015 6.06387 14.8461 6.80799 15.4277 7.73488C16.0092 8.66177 16.3176 9.73387 16.3175 10.8281Z" fill="#1A1A1A"/>
            <path d="M13.0296 5.58795C12.1405 9.40521 10.4788 12.9999 8.14713 16.1503C7.44096 15.8379 6.80404 15.388 6.27349 14.8269C5.74294 14.2658 5.32938 13.6047 5.0569 12.8822C4.78443 12.1597 4.65849 11.3901 4.68643 10.6184C4.71437 9.84675 4.89562 9.08833 5.21963 8.38739C5.54365 7.68646 6.00393 7.05702 6.57366 6.53577C7.1434 6.01452 7.81118 5.61189 8.53809 5.35133C9.26501 5.09077 10.0365 4.9775 10.8076 5.01813C11.5788 5.05875 12.3341 5.25246 13.0296 5.58795Z" fill="#333333"/>
            <path d="M15.0938 10.8281C15.0935 11.0876 15.0716 11.3467 15.0281 11.6025C14.8672 12.5395 14.4199 13.4035 13.7476 14.0758C13.0754 14.748 12.2113 15.1954 11.2744 15.3562C10.7618 15.4437 10.2382 15.4437 9.72562 15.3562C9.4341 15.3077 9.14826 15.2296 8.8725 15.1233C8.5092 14.9866 8.16509 14.8035 7.84875 14.5786C6.85332 13.8746 6.17821 12.8041 5.97188 11.6025C5.88438 11.09 5.88438 10.5663 5.97188 10.0537C6.13277 9.11678 6.58012 8.25271 7.25235 7.58048C7.92459 6.90824 8.78865 6.46089 9.72562 6.3C10.2382 6.2125 10.7618 6.2125 11.2744 6.3C11.9505 6.41478 12.5921 6.6806 13.1513 7.07766C14.1467 7.78164 14.8218 8.85213 15.0281 10.0537C15.0716 10.3096 15.0935 10.5686 15.0938 10.8281Z" fill="#333333"/>
            <path d="M12.7181 6.80531C11.8899 9.766 10.5915 12.5744 8.8725 15.1233C8.5092 14.9866 8.16509 14.8035 7.84875 14.5786C6.85332 13.8746 6.17821 12.8041 5.97188 11.6025C5.88438 11.09 5.88438 10.5663 5.97188 10.0537C6.13277 9.11678 6.58012 8.25271 7.25235 7.58048C7.92459 6.90824 8.78865 6.46089 9.72562 6.3C10.2382 6.2125 10.7618 6.2125 11.2744 6.3C11.7807 6.38582 12.2688 6.55666 12.7181 6.80531Z" fill="#4D4D4D"/>
            <path d="M12.6919 11.6025C12.6678 11.681 12.6359 11.7568 12.5967 11.8289L14.2505 13.4794C13.9491 13.9055 13.5773 14.2772 13.1513 14.5786L11.5008 12.9248C11.4287 12.964 11.3528 12.9959 11.2744 13.02V15.3562C10.7618 15.4437 10.2382 15.4437 9.72562 15.3562V13.02C9.64717 12.9959 9.57132 12.964 9.49922 12.9248L7.84875 14.5786C7.42265 14.2772 7.05094 13.9055 6.74953 13.4794L8.40328 11.8289C8.36408 11.7568 8.33221 11.681 8.30812 11.6025H5.97188C5.88438 11.09 5.88438 10.5663 5.97188 10.0537H8.30812C8.33221 9.97529 8.36408 9.89945 8.40328 9.82734L6.74953 8.17687C7.05094 7.75078 7.42265 7.37907 7.84875 7.07766L9.49922 8.73141C9.57132 8.69221 9.64717 8.66033 9.72562 8.63625V6.3C10.2382 6.2125 10.7618 6.2125 11.2744 6.3V8.63625C11.2908 8.64281 11.3072 8.64609 11.3236 8.65266C11.3844 8.67476 11.4436 8.70108 11.5008 8.73141L13.1513 7.07766C13.5773 7.37907 13.9491 7.75078 14.2505 8.17687L12.5967 9.82734C12.6359 9.89945 12.6678 9.97529 12.6919 10.0537H15.0281C15.1156 10.5663 15.1156 11.09 15.0281 11.6025H12.6919Z" fill="#E6E6E6"/>
            <path d="M9.72562 13.2169V13.02C9.64717 12.9959 9.57132 12.964 9.49922 12.9248L7.84875 14.5786C7.42265 14.2772 7.05094 13.9055 6.74953 13.4794L8.40328 11.8289C8.36408 11.7568 8.33221 11.681 8.30812 11.6025H5.97187C5.88438 11.09 5.88438 10.5663 5.97187 10.0537H8.30812C8.33221 9.97529 8.36408 9.89945 8.40328 9.82734L6.74953 8.17687C7.05094 7.75078 7.42265 7.37907 7.84875 7.07766L9.49922 8.73141C9.57132 8.69221 9.64717 8.66033 9.72562 8.63625V6.3C10.2382 6.2125 10.7618 6.2125 11.2744 6.3V8.63625C11.2908 8.64281 11.3072 8.64609 11.3236 8.65266C11.073 10.2586 10.5315 11.8053 9.72562 13.2169Z" fill="#F2F2F2"/>
            <path d="M11.6027 10.8281C11.6021 11.1203 11.4857 11.4004 11.2791 11.607C11.0725 11.8136 10.7924 11.93 10.5002 11.9306C10.4584 11.9307 10.4167 11.9274 10.3755 11.9207C10.0958 11.8893 9.83871 11.7519 9.65713 11.5368C9.47556 11.3217 9.38327 11.0452 9.39923 10.7642C9.4152 10.4831 9.5382 10.2189 9.74296 10.0257C9.94773 9.83255 10.2187 9.72515 10.5002 9.72559C10.7022 9.72545 10.9001 9.78232 11.0711 9.88965C11.2332 9.98685 11.3674 10.1244 11.4606 10.2888C11.5537 10.4533 11.6027 10.6391 11.6027 10.8281Z" fill="#333333"/>
            <path d="M11.0711 9.88965C10.8922 10.5837 10.6596 11.2627 10.3755 11.9207C10.0958 11.8893 9.83871 11.7519 9.65713 11.5368C9.47556 11.3217 9.38327 11.0452 9.39923 10.7642C9.4152 10.4831 9.5382 10.2189 9.74296 10.0257C9.94773 9.83255 10.2187 9.72515 10.5002 9.72559C10.7022 9.72545 10.9001 9.78232 11.0711 9.88965Z" fill="#4D4D4D"/>
            <path d="M10.8281 2.30669V3.07122C10.8281 3.15824 10.7936 3.2417 10.732 3.30324C10.6705 3.36477 10.587 3.39934 10.5 3.39934C10.413 3.39934 10.3295 3.36477 10.268 3.30324C10.2064 3.2417 10.1719 3.15824 10.1719 3.07122V2.30341L10.8281 2.30669Z" fill="black"/>
            <path d="M4.71168 4.57733L5.24652 5.11218C5.27695 5.14253 5.30108 5.17859 5.31755 5.21828C5.33402 5.25798 5.3425 5.30053 5.3425 5.3435C5.3425 5.38648 5.33402 5.42903 5.31755 5.46873C5.30108 5.50842 5.27695 5.54448 5.24652 5.57483C5.21657 5.60596 5.18065 5.63073 5.1409 5.64764C5.10115 5.66456 5.05839 5.67328 5.0152 5.67328C4.972 5.67328 4.92924 5.66456 4.88949 5.64764C4.84974 5.63073 4.81382 5.60596 4.78387 5.57483L4.24902 5.03999L4.71168 4.57733Z" fill="black"/>
            <path d="M1.97559 11.1562H2.7434C2.83042 11.1562 2.91388 11.1217 2.97542 11.0601C3.03695 10.9986 3.07152 10.9151 3.07152 10.8281C3.07152 10.7411 3.03695 10.6576 2.97542 10.5961C2.91388 10.5346 2.83042 10.5 2.7434 10.5H1.97559V11.1562Z" fill="black"/>
            <path d="M4.24219 16.6228L4.78359 16.0814C4.81397 16.051 4.85004 16.0269 4.88973 16.0104C4.92942 15.994 4.97196 15.9855 5.01492 15.9855C5.05788 15.9855 5.10042 15.994 5.14012 16.0104C5.17981 16.0269 5.21587 16.051 5.24625 16.0814C5.27663 16.1117 5.30073 16.1478 5.31717 16.1875C5.33361 16.2272 5.34207 16.2697 5.34207 16.3127C5.34207 16.3556 5.33361 16.3982 5.31717 16.4379C5.30073 16.4776 5.27663 16.5136 5.24625 16.544L4.70484 17.0854L4.24219 16.6228Z" fill="black"/>
            <path d="M16.2945 17.0854L15.753 16.544C15.6917 16.4827 15.6572 16.3994 15.6572 16.3127C15.6572 16.2259 15.6917 16.1427 15.753 16.0814C15.8144 16.02 15.8976 15.9855 15.9844 15.9855C16.0711 15.9855 16.1543 16.02 16.2157 16.0814L16.7571 16.6228L16.2945 17.0854Z" fill="black"/>
            <path d="M19.0246 11.1562H18.2568C18.1698 11.1562 18.0864 11.1217 18.0248 11.0601C17.9633 10.9986 17.9287 10.9151 17.9287 10.8281C17.9287 10.7411 17.9633 10.6576 18.0248 10.5961C18.0864 10.5346 18.1698 10.5 18.2568 10.5H19.0246V11.1562Z" fill="black"/>
            <path d="M16.7573 5.0334L16.2159 5.5748C16.1859 5.60593 16.15 5.6307 16.1102 5.64761C16.0705 5.66453 16.0277 5.67325 15.9845 5.67325C15.9413 5.67325 15.8986 5.66453 15.8588 5.64761C15.8191 5.6307 15.7831 5.60593 15.7532 5.5748C15.7228 5.54445 15.6986 5.50839 15.6822 5.4687C15.6657 5.429 15.6572 5.38645 15.6572 5.34347C15.6572 5.3005 15.6657 5.25795 15.6822 5.21825C15.6986 5.17856 15.7228 5.1425 15.7532 5.11215L16.2946 4.57074L16.7573 5.0334Z" fill="black"/>
            <path d="M16.9676 2.71029L15.3336 3.79638C14.9299 3.51902 14.5028 3.27748 14.0571 3.0745C14.0211 3.0581 13.9882 3.04169 13.9521 3.02529L14.3656 0.964661L15.0317 1.96544L16.0292 1.29935L15.9471 1.71279L15.7929 2.47404L16.9676 2.71029Z" fill="#FFAD1D"/>
            <path d="M16.0292 1.29935L15.9471 1.71279C15.4672 2.34518 14.809 2.81944 14.0571 3.0745C14.0211 3.0581 13.9882 3.04169 13.9521 3.02529L14.3656 0.964661L15.0317 1.96544L16.0292 1.29935Z" fill="#FFC239"/>
        </svg>
        <svg id="change-bat" width="16" height="16" viewBox="0 0 16 16" fill="none" xmlns="http://www.w3.org/2000/svg">
            <path d="M10.9463 2.40856L10.7151 1.65687C10.5886 1.25515 10.3207 1.17084 10.1179 1.17084H5.88108C5.6783 1.17084 5.41039 1.25515 5.28392 1.65652L5.03995 2.40852L4.88477 2.88752H5.38611L5.54227 2.40852L5.74058 1.80084C5.78817 1.64981 5.83127 1.64981 5.88108 1.64981H10.118C10.1678 1.64981 10.2109 1.64981 10.2585 1.80118L10.444 2.40852L10.5902 2.88752H11.0938L10.9463 2.40856Z" fill="#375E7D"/>
            <path fill-rule="evenodd" clip-rule="evenodd" d="M1.69199 14.15H14.1896L15.1496 12.5732V5.42492L8.00009 4.68298L0.850586 5.42492V12.5732L1.69199 14.15Z" fill="#F9F7F8"/>
            <path fill-rule="evenodd" clip-rule="evenodd" d="M2.03418 2.64791L2.77793 3.05035L3.61659 2.64791V1.98904C3.61659 1.62582 3.31999 1.32922 2.9568 1.32922H2.69399C2.3308 1.32922 2.03421 1.62582 2.03421 1.98904L2.03418 2.64791Z" fill="#A1D4FF"/>
            <path fill-rule="evenodd" clip-rule="evenodd" d="M12.3838 1.98904V2.64791L13.2507 3.08688L13.9662 2.64791V1.98904C13.9662 1.62582 13.6687 1.32922 13.3064 1.32922H13.0427C12.6804 1.32922 12.3838 1.62582 12.3838 1.98904Z" fill="#F37C7C"/>
            <path fill-rule="evenodd" clip-rule="evenodd" d="M0.447477 14.8291H15.4345C15.555 14.8291 15.6545 14.7306 15.6545 14.6092V13.7632V13.0779C15.6545 12.8005 15.4273 12.5732 15.1498 12.5732H14.6944C14.417 12.5732 14.1898 12.8005 14.1898 13.0779V13.5433H1.69223V13.0779C1.69223 12.8005 1.46501 12.5732 1.18666 12.5732H0.85082H0.732195C0.454789 12.5732 0.227539 12.8005 0.227539 13.0779V13.7632V14.6092C0.227539 14.7306 0.326102 14.8291 0.447477 14.8291Z" fill="#375E7D"/>
            <path fill-rule="evenodd" clip-rule="evenodd" d="M7.65954 9.91574C7.87126 9.91574 7.92876 9.98509 7.88038 10.1841L7.50257 11.7382C7.42957 12.0421 7.59382 11.9554 7.76082 11.7382L9.53029 9.42568C9.69638 9.20849 9.72923 9.10809 9.4372 9.10809H8.28645C8.08295 9.10809 8.05829 9.07431 8.10395 8.88724L8.49451 7.28474C8.60035 6.84943 8.40235 7.06756 8.23626 7.28565L6.46588 9.59724C6.29979 9.81443 6.27788 9.91574 6.55988 9.91574H7.65954Z" fill="#FFD772"/>
            <path fill-rule="evenodd" clip-rule="evenodd" d="M0.850586 6.44886H13.9258V13.5433H14.1895V13.0779C14.1895 12.8005 14.4167 12.5733 14.6942 12.5733H15.1496V5.42493H13.8254H0.850586V6.44886Z" fill="#E5E4EC"/>
            <path fill-rule="evenodd" clip-rule="evenodd" d="M14.9424 13.7632V14.6092C14.9424 14.7306 14.8438 14.8291 14.7224 14.8291H15.4342C15.5547 14.8291 15.6542 14.7306 15.6542 14.6092V13.7632V13.0779C15.6542 12.8005 15.427 12.5732 15.1495 12.5732H14.6942C14.6503 12.5732 14.6075 12.5787 14.5664 12.5897C14.7827 12.6463 14.9424 12.8443 14.9424 13.0779V13.5433V13.7632Z" fill="#2B4D66"/>
            <path fill-rule="evenodd" clip-rule="evenodd" d="M1.15042 4.13908L8.39161 4.68298L14.8489 4.13908V3.39348C14.8489 2.98373 14.5131 2.64789 14.1034 2.64789H13.9656C10.5152 2.64789 7.06567 2.64789 3.61617 2.64789H2.03377H1.89595C1.4862 2.64789 1.15039 2.98373 1.15039 3.39348L1.15042 4.13908Z" fill="#FFD772"/>
            <path fill-rule="evenodd" clip-rule="evenodd" d="M13.8251 4.13908H14.849V3.39348C14.849 2.98373 14.5132 2.64789 14.1035 2.64789H13.9657H12.5713C12.981 2.64789 13.3169 2.98373 13.3169 3.39348V4.13908H13.8251Z" fill="#FBBA58"/>
            <path fill-rule="evenodd" clip-rule="evenodd" d="M0.8505 5.42488H15.1495H15.3566C15.6149 5.42488 15.8385 5.27157 15.9407 5.05163C15.979 4.96951 16 4.87823 16 4.78241C16 4.6866 15.979 4.59532 15.9407 4.51319C15.8384 4.29326 15.6149 4.13904 15.3566 4.13904H14.8492H1.15075H0.642437C0.289281 4.13907 0 4.42835 0 4.78244C0 5.13563 0.289281 5.42491 0.642437 5.42491H0.8505V5.42488Z" fill="#375E7D"/>
            <path fill-rule="evenodd" clip-rule="evenodd" d="M13.8252 5.42488H15.1493H15.3565C15.6147 5.42488 15.8383 5.27157 15.9405 5.05163C15.9788 4.96951 15.9998 4.87823 15.9998 4.78241C15.9998 4.6866 15.9788 4.59532 15.9405 4.51319C15.8383 4.29326 15.6147 4.13904 15.3565 4.13904H14.8491H13.8252C14.0825 4.13904 14.3061 4.29326 14.4083 4.51319C14.4467 4.59532 14.4676 4.6866 14.4676 4.78241C14.4676 4.87823 14.4466 4.96951 14.4083 5.05163C14.3061 5.27157 14.0825 5.42488 13.8252 5.42488Z" fill="#2B4D66"/>
            <path fill-rule="evenodd" clip-rule="evenodd" d="M2.91916 2.64791H3.61634V1.98904C3.61634 1.62582 3.31975 1.32922 2.95656 1.32922H2.69375C2.618 1.32922 2.545 1.342 2.47656 1.36572C2.73391 1.45607 2.91916 1.70157 2.91916 1.98904V2.64791Z" fill="#75CEF8"/>
            <path fill-rule="evenodd" clip-rule="evenodd" d="M13.2688 2.64791H13.966V1.98904C13.966 1.62582 13.6685 1.32922 13.3062 1.32922H13.0425C12.9667 1.32922 12.8937 1.342 12.8262 1.36572C13.0826 1.45607 13.2688 1.70157 13.2688 1.98904V2.64791Z" fill="#E6646E"/>
            <path d="M13.1731 7.90859H12.8834V7.61877C12.8834 7.48649 12.7762 7.37927 12.6439 7.37927C12.5116 7.37927 12.4044 7.48649 12.4044 7.61877V7.90859H12.1155C11.9832 7.90859 11.876 8.0158 11.876 8.14809C11.876 8.28037 11.9832 8.38759 12.1155 8.38759H12.4044V8.6774C12.4044 8.80968 12.5116 8.9169 12.6439 8.9169C12.7762 8.9169 12.8834 8.80968 12.8834 8.6774V8.38759H13.1731C13.3054 8.38759 13.4126 8.28037 13.4126 8.14809C13.4126 8.0158 13.3054 7.90859 13.1731 7.90859Z" fill="#375E7D"/>
            <path d="M3.55838 8.38757H2.64673C2.51445 8.38757 2.40723 8.28035 2.40723 8.14807C2.40723 8.01579 2.51445 7.90857 2.64673 7.90857H3.55841C3.6907 7.90857 3.79791 8.01579 3.79791 8.14807C3.79788 8.28032 3.69066 8.38757 3.55838 8.38757Z" fill="#375E7D"/>
        </svg>
        <svg id="edit" width="18" height="18" viewBox="0 0 18 18" fill="none" xmlns="http://www.w3.org/2000/svg">
            <path d="M10.2744 14.9233H15.0572" stroke="#637381" stroke-width="1.5" stroke-linecap="round" stroke-linejoin="round"/>
            <path fill-rule="evenodd" clip-rule="evenodd" d="M9.64104 3.7167C10.1938 3.01245 11.087 3.0492 11.792 3.60195L12.8345 4.41945C13.5395 4.9722 13.7893 5.82945 13.2365 6.5352L7.01979 14.4665C6.81204 14.732 6.49479 14.8887 6.15729 14.8925L3.75954 14.9232L3.21654 12.587C3.14004 12.2592 3.21654 11.9142 3.42429 11.648L9.64104 3.7167Z" stroke="#637381" stroke-width="1.5" stroke-linecap="round" stroke-linejoin="round"/>
            <path d="M8.47705 5.20215L12.0726 8.02065" stroke="#637381" stroke-width="1.5" stroke-linecap="round" stroke-linejoin="round"/>
        </svg>

        <svg id="x" width="24" height="24" viewBox="0 0 24 24" fill="none" xmlns="http://www.w3.org/2000/svg">
            <path d="M12 22C17.5228 22 22 17.5228 22 12C22 6.47715 17.5228 2 12 2C6.47715 2 2 6.47715 2 12C2 17.5228 6.47715 22 12 22Z" stroke="#FF595A" stroke-width="2" stroke-linecap="round" stroke-linejoin="round"/>
            <path d="M15 9L9 15" stroke="#FF595A" stroke-width="2" stroke-linecap="round" stroke-linejoin="round"/>
            <path d="M9 9L15 15" stroke="#FF595A" stroke-width="2" stroke-linecap="round" stroke-linejoin="round"/>
        </svg>
            
    </defs>
</svg>
