<!-- @formatter:off -->
<svg xmlns="http://www.w3.org/2000/svg">
    <defs>
        <svg id="calendar" width="24" height="24" viewBox="0 0 24 24" fill="none"
            xmlns="http://www.w3.org/2000/svg">
            <path d="M4 4H20V18C20 19.1046 19.1046 20 18 20H6C4.89543 20 4 19.1046 4 18V4Z"
                stroke="#FF595A" stroke-width="1.5" stroke-linecap="round" stroke-linejoin="round" />
            <path d="M4 8H20" stroke="#FF595A" stroke-width="1.5" stroke-linecap="round"
                stroke-linejoin="round" />
            <path d="M16 3V5" stroke="#FF595A" stroke-width="1.5" stroke-linecap="round"
                stroke-linejoin="round" />
            <path d="M8 3V5" stroke="#FF595A" stroke-width="1.5" stroke-linecap="round"
                stroke-linejoin="round" />
        </svg>

        <svg id="user" width="24" height="24" viewBox="0 0 24 24" fill="none"
            xmlns="http://www.w3.org/2000/svg">
            <circle cx="11.5788" cy="7.27803" r="4.77803" stroke="#FF595A" stroke-width="1.5"
                stroke-linecap="round" stroke-linejoin="round" />
            <path fill-rule="evenodd" clip-rule="evenodd"
                d="M4.00002 18.7014C3.99873 18.3655 4.07385 18.0337 4.2197 17.7311C4.67736 16.8158 5.96798 16.3307 7.03892 16.111C7.81128 15.9462 8.59431 15.836 9.38217 15.7815C10.8408 15.6533 12.3079 15.6533 13.7666 15.7815C14.5544 15.8367 15.3374 15.9468 16.1099 16.111C17.1808 16.3307 18.4714 16.77 18.9291 17.7311C19.2224 18.3479 19.2224 19.064 18.9291 19.6808C18.4714 20.6419 17.1808 21.0812 16.1099 21.2918C15.3384 21.4634 14.5551 21.5766 13.7666 21.6304C12.5794 21.7311 11.3866 21.7494 10.1968 21.6854C9.92221 21.6854 9.65677 21.6854 9.38217 21.6304C8.59663 21.5773 7.81632 21.4641 7.04807 21.2918C5.96798 21.0812 4.68652 20.6419 4.2197 19.6808C4.0746 19.3747 3.99955 19.0401 4.00002 18.7014Z"
                stroke="#FF595A" stroke-width="1.5" stroke-linecap="round" stroke-linejoin="round" />
        </svg>

        <svg id="calendar-bg" width="30" height="30" viewBox="0 0 30 30" fill="none"
            xmlns="http://www.w3.org/2000/svg">
            <path opacity="0.4" fill-rule="evenodd" clip-rule="evenodd"
                d="M11.1838 6.35192H18.8621V4.56415H11.1838V6.35192ZM9.43707 4.63757V4.64647C8.83768 4.70098 8.24473 4.82001 7.66786 4.99912V4.99245C7.65071 4.99966 7.63457 5.00521 7.61907 5.01054C7.59873 5.01753 7.57951 5.02414 7.56064 5.03361C7.51453 5.04474 7.4695 5.06142 7.42661 5.08256C7.30008 5.12372 7.17356 5.17267 7.05454 5.22274C7.02291 5.23497 6.99128 5.24916 6.95965 5.26334C6.92801 5.27753 6.89638 5.29171 6.86475 5.30395C6.82133 5.32453 6.77602 5.34706 6.73072 5.36958C6.68542 5.39211 6.64012 5.41464 6.59669 5.43522L6.38224 5.55871C6.34259 5.57893 6.30589 5.60265 6.26844 5.62685C6.24614 5.64126 6.22357 5.65584 6.19996 5.66996C5.87721 5.87799 5.57806 6.12163 5.30785 6.39864L5.29177 6.41532C5.25628 6.4567 5.22094 6.49684 5.18608 6.53643C5.1272 6.60331 5.06968 6.66864 5.01513 6.73572L4.99905 6.7513C4.12195 7.96169 3.68233 9.45354 3.75846 10.9654V11.4449H5.49013V10.961C5.49013 8.8539 6.16136 7.54228 7.655 6.87033C8.22543 6.62892 8.82803 6.47985 9.44136 6.42534H9.45744V4.64535L9.43707 4.63757ZM24.9975 6.72905L25.005 6.74462C25.881 7.95613 26.3185 9.44909 26.2413 10.961V11.4449H24.5107V10.9487C24.5471 10.0565 24.3681 9.16874 23.9885 8.36663C23.6239 7.68023 23.0406 7.14734 22.3362 6.8581C21.7754 6.61669 21.1814 6.4665 20.5755 6.4131V4.64202C21.1749 4.69764 21.7679 4.81556 22.3458 4.99468V4.98578C22.3783 5.00051 22.4031 5.00927 22.4456 5.02431L22.453 5.02694C22.4728 5.03392 22.4912 5.0409 22.5094 5.0478C22.5347 5.05739 22.5596 5.06683 22.5871 5.07589C22.7056 5.11478 22.8165 5.16063 22.9306 5.20779L22.9506 5.21606C23.0032 5.23455 23.0528 5.25748 23.0975 5.27814C23.1119 5.28483 23.1259 5.29128 23.1393 5.29727C23.2336 5.33843 23.3301 5.38738 23.4073 5.42855C23.4588 5.45526 23.509 5.48386 23.556 5.51067C23.5814 5.52517 23.606 5.53915 23.6293 5.55203C23.6677 5.57325 23.7011 5.59595 23.7332 5.61777C23.7567 5.63372 23.7795 5.64919 23.803 5.66328C24.1268 5.87243 24.4292 6.11718 24.7026 6.39196L24.7123 6.40865C24.813 6.50989 24.9085 6.61669 24.9975 6.72905Z"
                fill="#FF595A" />
            <path
                d="M20.6243 3.39616V7.33558C20.6243 7.83193 20.2215 8.23396 19.7243 8.23396C19.227 8.23396 18.8243 7.83193 18.8243 7.33558V3.40514C18.8198 2.90879 19.2203 2.50339 19.7175 2.50002C20.2148 2.49665 20.6209 2.89531 20.6243 3.39167V3.39616Z"
                fill="#FF595A" />
            <path
                d="M11.175 3.41043V7.34011C11.175 7.83862 10.7718 8.24281 10.2744 8.24281C9.77712 8.24281 9.375 7.83862 9.375 7.34011V3.41043C9.375 2.91192 9.77712 2.50885 10.2744 2.50885C10.7718 2.50885 11.175 2.91192 11.175 3.41043Z"
                fill="#FF595A" />
            <path fill-rule="evenodd" clip-rule="evenodd"
                d="M3.75 21.1377V11.4449H26.25V21.1377C26.25 25.3645 23.8895 27.5 19.2114 27.5H10.7779C6.11052 27.5 3.75 25.3645 3.75 21.1377ZM8.82513 16.8335C8.82513 17.4199 9.2865 17.8957 9.85517 17.8957C10.4346 17.8957 10.8959 17.4088 10.8852 16.8224C10.8852 16.236 10.4238 15.7602 9.8659 15.7602H9.85517C9.2865 15.7602 8.82513 16.247 8.82513 16.8335ZM13.9646 16.8335C13.9646 17.4199 14.4367 17.8957 15.0054 17.8957C15.574 17.8957 16.0354 17.4199 16.0354 16.8224C16.0354 16.247 15.574 15.7712 15.0054 15.7602H14.9946C14.426 15.7712 13.9646 16.247 13.9646 16.8335ZM20.1449 17.8957C19.5762 17.8957 19.1148 17.4199 19.1148 16.8335C19.1148 16.247 19.5655 15.7712 20.1449 15.7712C20.7135 15.7712 21.1749 16.247 21.1749 16.8335C21.1749 17.4199 20.7135 17.8957 20.1449 17.8957ZM20.1449 22.4323C19.5762 22.4323 19.1148 21.9565 19.1041 21.37C19.1041 20.7836 19.5655 20.3078 20.1341 20.3078H20.1449C20.7135 20.3078 21.1749 20.7836 21.1749 21.37C21.1749 21.9565 20.7135 22.4323 20.1449 22.4323ZM15.0054 22.4323C14.4367 22.4323 13.9646 21.9565 13.9646 21.3701C13.9646 20.7836 14.426 20.3078 14.9946 20.2968H15.0054C15.574 20.3078 16.0247 20.7836 16.0354 21.359C16.0354 21.9565 15.574 22.4323 15.0054 22.4323ZM9.85515 22.4323C9.28648 22.4323 8.82511 21.9565 8.82511 21.3701C8.81438 20.7836 9.27575 20.2968 9.85515 20.2968C10.4238 20.2968 10.8852 20.7725 10.8852 21.359C10.8852 21.9454 10.4238 22.4323 9.85515 22.4323Z"
                fill="#FF595A" />
        </svg>


        <svg id="check" width="86" height="86" viewBox="0 0 86 86" fill="none"
            xmlns="http://www.w3.org/2000/svg">
            <path fill-rule="evenodd" clip-rule="evenodd"
                d="M43 74C60.1208 74 74 60.1208 74 43C74 25.8792 60.1208 12 43 12C25.8792 12 12 25.8792 12 43C12 60.1208 25.8792 74 43 74Z"
                fill="#FF595A" />
            <path
                d="M43 80C63.4345 80 80 63.4345 80 43C80 22.5655 63.4345 6 43 6C22.5655 6 6 22.5655 6 43C6 63.4345 22.5655 80 43 80Z"
                stroke="#FF595A" stroke-opacity="0.15" stroke-width="12" />
            <path fill-rule="evenodd" clip-rule="evenodd"
                d="M51.3458 37.1875L39.9792 48.5541L34.8125 43.3875" fill="#FF595A" />
            <path d="M51.3458 37.1875L39.9792 48.5541L34.8125 43.3875" stroke="white"
                stroke-width="4" stroke-linecap="round" stroke-linejoin="round" />
        </svg>
        <svg id="change-tries" width="21" height="21" viewBox="0 0 21 21" fill="none"
            xmlns="http://www.w3.org/2000/svg">
            <path
                d="M16.2945 17.0854C15.9067 17.4432 15.4872 17.765 15.0411 18.0468H17.3905C17.6515 18.0468 17.9019 18.1505 18.0865 18.3351C18.2711 18.5197 18.3748 18.7701 18.3748 19.0312C18.3748 19.2923 18.2711 19.5427 18.0865 19.7273C17.9019 19.9119 17.6515 20.0156 17.3905 20.0156H3.60922C3.34815 20.0156 3.09777 19.9119 2.91316 19.7273C2.72855 19.5427 2.62484 19.2923 2.62484 19.0312C2.62484 18.7701 2.72855 18.5197 2.91316 18.3351C3.09777 18.1505 3.34815 18.0468 3.60922 18.0468H5.95859C5.51249 17.765 5.09294 17.4432 4.70516 17.0854L4.2425 16.6228C2.85431 15.1323 2.04941 13.1917 1.97516 11.1562C1.96531 10.9396 1.96531 10.7198 1.97516 10.5C1.97844 10.431 1.98172 10.3589 1.985 10.2867C2.11058 8.32865 2.91064 6.47461 4.24906 5.03995L4.27859 5.01042C4.41641 4.86276 4.56078 4.71511 4.71172 4.57729C6.14684 3.23959 8.00062 2.43965 9.95844 2.31323C10.0306 2.30995 10.1028 2.30667 10.1717 2.30339C10.3904 2.29298 10.6094 2.29408 10.828 2.30667C11.751 2.33773 12.6624 2.5218 13.5252 2.85136C13.6695 2.90386 13.8106 2.96292 13.9517 3.02526C14.8143 3.40447 15.6064 3.92702 16.2945 4.57073C16.4568 4.71664 16.6113 4.87108 16.7572 5.03339C18.1456 6.52374 18.9505 8.46444 19.0245 10.5C19.0278 10.6082 19.0311 10.7165 19.0311 10.8281C19.0311 10.9364 19.0278 11.0479 19.0245 11.1562C18.949 13.1914 18.1443 15.1316 16.7572 16.6228C16.6128 16.7835 16.4553 16.9378 16.2945 17.0854Z"
                fill="#333333" />
            <path
                d="M13.5252 2.85136C12.6543 9.41641 9.54339 15.4794 4.71828 20.0156H3.60922C3.34815 20.0156 3.09777 19.9119 2.91316 19.7273C2.72855 19.5427 2.62484 19.2923 2.62484 19.0312C2.62484 18.7701 2.72855 18.5197 2.91316 18.3351C3.09777 18.1505 3.34815 18.0468 3.60922 18.0468H5.95859C5.51248 17.765 5.09294 17.4432 4.70516 17.0854L4.2425 16.6228C2.85431 15.1323 2.04941 13.1917 1.97516 11.1562C1.96531 10.9396 1.96531 10.7198 1.97516 10.5C1.97844 10.431 1.98172 10.3589 1.985 10.2867C2.11058 8.32865 2.91064 6.47461 4.24906 5.03995L4.27859 5.01042C4.41641 4.86276 4.56078 4.71511 4.71172 4.57729C6.14684 3.23959 8.00062 2.43965 9.95844 2.31323C10.0306 2.30995 10.1028 2.30667 10.1717 2.30339C10.3904 2.29298 10.6094 2.29408 10.828 2.30667C11.751 2.33773 12.6624 2.5218 13.5252 2.85136Z"
                fill="#4D4D4D" />
            <path
                d="M16.3175 10.8281C16.3167 12.0894 15.9058 13.3162 15.1467 14.3235C14.3876 15.3308 13.3216 16.0639 12.1094 16.4123C10.8972 16.7607 9.60459 16.7054 8.42655 16.2548C7.2485 15.8043 6.24891 14.9829 5.57858 13.9145C4.90824 12.8461 4.60351 11.5887 4.71036 10.3319C4.8172 9.0752 5.32983 7.88729 6.1709 6.9474C7.01198 6.00751 8.13588 5.36661 9.37309 5.12139C10.6103 4.87617 11.8937 5.03992 13.0297 5.58794C14.015 6.06387 14.8461 6.80799 15.4277 7.73488C16.0092 8.66177 16.3176 9.73387 16.3175 10.8281Z"
                fill="#1A1A1A" />
            <path
                d="M13.0296 5.58795C12.1405 9.40521 10.4788 12.9999 8.14713 16.1503C7.44096 15.8379 6.80404 15.388 6.27349 14.8269C5.74294 14.2658 5.32938 13.6047 5.0569 12.8822C4.78443 12.1597 4.65849 11.3901 4.68643 10.6184C4.71437 9.84675 4.89562 9.08833 5.21963 8.38739C5.54365 7.68646 6.00393 7.05702 6.57366 6.53577C7.1434 6.01452 7.81118 5.61189 8.53809 5.35133C9.26501 5.09077 10.0365 4.9775 10.8076 5.01813C11.5788 5.05875 12.3341 5.25246 13.0296 5.58795Z"
                fill="#333333" />
            <path
                d="M15.0938 10.8281C15.0935 11.0876 15.0716 11.3467 15.0281 11.6025C14.8672 12.5395 14.4199 13.4035 13.7476 14.0758C13.0754 14.748 12.2113 15.1954 11.2744 15.3562C10.7618 15.4437 10.2382 15.4437 9.72562 15.3562C9.4341 15.3077 9.14826 15.2296 8.8725 15.1233C8.5092 14.9866 8.16509 14.8035 7.84875 14.5786C6.85332 13.8746 6.17821 12.8041 5.97188 11.6025C5.88438 11.09 5.88438 10.5663 5.97188 10.0537C6.13277 9.11678 6.58012 8.25271 7.25235 7.58048C7.92459 6.90824 8.78865 6.46089 9.72562 6.3C10.2382 6.2125 10.7618 6.2125 11.2744 6.3C11.9505 6.41478 12.5921 6.6806 13.1513 7.07766C14.1467 7.78164 14.8218 8.85213 15.0281 10.0537C15.0716 10.3096 15.0935 10.5686 15.0938 10.8281Z"
                fill="#333333" />
            <path
                d="M12.7181 6.80531C11.8899 9.766 10.5915 12.5744 8.8725 15.1233C8.5092 14.9866 8.16509 14.8035 7.84875 14.5786C6.85332 13.8746 6.17821 12.8041 5.97188 11.6025C5.88438 11.09 5.88438 10.5663 5.97188 10.0537C6.13277 9.11678 6.58012 8.25271 7.25235 7.58048C7.92459 6.90824 8.78865 6.46089 9.72562 6.3C10.2382 6.2125 10.7618 6.2125 11.2744 6.3C11.7807 6.38582 12.2688 6.55666 12.7181 6.80531Z"
                fill="#4D4D4D" />
            <path
                d="M12.6919 11.6025C12.6678 11.681 12.6359 11.7568 12.5967 11.8289L14.2505 13.4794C13.9491 13.9055 13.5773 14.2772 13.1513 14.5786L11.5008 12.9248C11.4287 12.964 11.3528 12.9959 11.2744 13.02V15.3562C10.7618 15.4437 10.2382 15.4437 9.72562 15.3562V13.02C9.64717 12.9959 9.57132 12.964 9.49922 12.9248L7.84875 14.5786C7.42265 14.2772 7.05094 13.9055 6.74953 13.4794L8.40328 11.8289C8.36408 11.7568 8.33221 11.681 8.30812 11.6025H5.97188C5.88438 11.09 5.88438 10.5663 5.97188 10.0537H8.30812C8.33221 9.97529 8.36408 9.89945 8.40328 9.82734L6.74953 8.17687C7.05094 7.75078 7.42265 7.37907 7.84875 7.07766L9.49922 8.73141C9.57132 8.69221 9.64717 8.66033 9.72562 8.63625V6.3C10.2382 6.2125 10.7618 6.2125 11.2744 6.3V8.63625C11.2908 8.64281 11.3072 8.64609 11.3236 8.65266C11.3844 8.67476 11.4436 8.70108 11.5008 8.73141L13.1513 7.07766C13.5773 7.37907 13.9491 7.75078 14.2505 8.17687L12.5967 9.82734C12.6359 9.89945 12.6678 9.97529 12.6919 10.0537H15.0281C15.1156 10.5663 15.1156 11.09 15.0281 11.6025H12.6919Z"
                fill="#E6E6E6" />
            <path
                d="M9.72562 13.2169V13.02C9.64717 12.9959 9.57132 12.964 9.49922 12.9248L7.84875 14.5786C7.42265 14.2772 7.05094 13.9055 6.74953 13.4794L8.40328 11.8289C8.36408 11.7568 8.33221 11.681 8.30812 11.6025H5.97187C5.88438 11.09 5.88438 10.5663 5.97187 10.0537H8.30812C8.33221 9.97529 8.36408 9.89945 8.40328 9.82734L6.74953 8.17687C7.05094 7.75078 7.42265 7.37907 7.84875 7.07766L9.49922 8.73141C9.57132 8.69221 9.64717 8.66033 9.72562 8.63625V6.3C10.2382 6.2125 10.7618 6.2125 11.2744 6.3V8.63625C11.2908 8.64281 11.3072 8.64609 11.3236 8.65266C11.073 10.2586 10.5315 11.8053 9.72562 13.2169Z"
                fill="#F2F2F2" />
            <path
                d="M11.6027 10.8281C11.6021 11.1203 11.4857 11.4004 11.2791 11.607C11.0725 11.8136 10.7924 11.93 10.5002 11.9306C10.4584 11.9307 10.4167 11.9274 10.3755 11.9207C10.0958 11.8893 9.83871 11.7519 9.65713 11.5368C9.47556 11.3217 9.38327 11.0452 9.39923 10.7642C9.4152 10.4831 9.5382 10.2189 9.74296 10.0257C9.94773 9.83255 10.2187 9.72515 10.5002 9.72559C10.7022 9.72545 10.9001 9.78232 11.0711 9.88965C11.2332 9.98685 11.3674 10.1244 11.4606 10.2888C11.5537 10.4533 11.6027 10.6391 11.6027 10.8281Z"
                fill="#333333" />
            <path
                d="M11.0711 9.88965C10.8922 10.5837 10.6596 11.2627 10.3755 11.9207C10.0958 11.8893 9.83871 11.7519 9.65713 11.5368C9.47556 11.3217 9.38327 11.0452 9.39923 10.7642C9.4152 10.4831 9.5382 10.2189 9.74296 10.0257C9.94773 9.83255 10.2187 9.72515 10.5002 9.72559C10.7022 9.72545 10.9001 9.78232 11.0711 9.88965Z"
                fill="#4D4D4D" />
            <path
                d="M10.8281 2.30669V3.07122C10.8281 3.15824 10.7936 3.2417 10.732 3.30324C10.6705 3.36477 10.587 3.39934 10.5 3.39934C10.413 3.39934 10.3295 3.36477 10.268 3.30324C10.2064 3.2417 10.1719 3.15824 10.1719 3.07122V2.30341L10.8281 2.30669Z"
                fill="black" />
            <path
                d="M4.71168 4.57733L5.24652 5.11218C5.27695 5.14253 5.30108 5.17859 5.31755 5.21828C5.33402 5.25798 5.3425 5.30053 5.3425 5.3435C5.3425 5.38648 5.33402 5.42903 5.31755 5.46873C5.30108 5.50842 5.27695 5.54448 5.24652 5.57483C5.21657 5.60596 5.18065 5.63073 5.1409 5.64764C5.10115 5.66456 5.05839 5.67328 5.0152 5.67328C4.972 5.67328 4.92924 5.66456 4.88949 5.64764C4.84974 5.63073 4.81382 5.60596 4.78387 5.57483L4.24902 5.03999L4.71168 4.57733Z"
                fill="black" />
            <path
                d="M1.97559 11.1562H2.7434C2.83042 11.1562 2.91388 11.1217 2.97542 11.0601C3.03695 10.9986 3.07152 10.9151 3.07152 10.8281C3.07152 10.7411 3.03695 10.6576 2.97542 10.5961C2.91388 10.5346 2.83042 10.5 2.7434 10.5H1.97559V11.1562Z"
                fill="black" />
            <path
                d="M4.24219 16.6228L4.78359 16.0814C4.81397 16.051 4.85004 16.0269 4.88973 16.0104C4.92942 15.994 4.97196 15.9855 5.01492 15.9855C5.05788 15.9855 5.10042 15.994 5.14012 16.0104C5.17981 16.0269 5.21587 16.051 5.24625 16.0814C5.27663 16.1117 5.30073 16.1478 5.31717 16.1875C5.33361 16.2272 5.34207 16.2697 5.34207 16.3127C5.34207 16.3556 5.33361 16.3982 5.31717 16.4379C5.30073 16.4776 5.27663 16.5136 5.24625 16.544L4.70484 17.0854L4.24219 16.6228Z"
                fill="black" />
            <path
                d="M16.2945 17.0854L15.753 16.544C15.6917 16.4827 15.6572 16.3994 15.6572 16.3127C15.6572 16.2259 15.6917 16.1427 15.753 16.0814C15.8144 16.02 15.8976 15.9855 15.9844 15.9855C16.0711 15.9855 16.1543 16.02 16.2157 16.0814L16.7571 16.6228L16.2945 17.0854Z"
                fill="black" />
            <path
                d="M19.0246 11.1562H18.2568C18.1698 11.1562 18.0864 11.1217 18.0248 11.0601C17.9633 10.9986 17.9287 10.9151 17.9287 10.8281C17.9287 10.7411 17.9633 10.6576 18.0248 10.5961C18.0864 10.5346 18.1698 10.5 18.2568 10.5H19.0246V11.1562Z"
                fill="black" />
            <path
                d="M16.7573 5.0334L16.2159 5.5748C16.1859 5.60593 16.15 5.6307 16.1102 5.64761C16.0705 5.66453 16.0277 5.67325 15.9845 5.67325C15.9413 5.67325 15.8986 5.66453 15.8588 5.64761C15.8191 5.6307 15.7831 5.60593 15.7532 5.5748C15.7228 5.54445 15.6986 5.50839 15.6822 5.4687C15.6657 5.429 15.6572 5.38645 15.6572 5.34347C15.6572 5.3005 15.6657 5.25795 15.6822 5.21825C15.6986 5.17856 15.7228 5.1425 15.7532 5.11215L16.2946 4.57074L16.7573 5.0334Z"
                fill="black" />
            <path
                d="M16.9676 2.71029L15.3336 3.79638C14.9299 3.51902 14.5028 3.27748 14.0571 3.0745C14.0211 3.0581 13.9882 3.04169 13.9521 3.02529L14.3656 0.964661L15.0317 1.96544L16.0292 1.29935L15.9471 1.71279L15.7929 2.47404L16.9676 2.71029Z"
                fill="#FFAD1D" />
            <path
                d="M16.0292 1.29935L15.9471 1.71279C15.4672 2.34518 14.809 2.81944 14.0571 3.0745C14.0211 3.0581 13.9882 3.04169 13.9521 3.02529L14.3656 0.964661L15.0317 1.96544L16.0292 1.29935Z"
                fill="#FFC239" />
        </svg>
        <svg id="change-bat" width="16" height="16" viewBox="0 0 16 16" fill="none"
            xmlns="http://www.w3.org/2000/svg">
            <path
                d="M10.9463 2.40856L10.7151 1.65687C10.5886 1.25515 10.3207 1.17084 10.1179 1.17084H5.88108C5.6783 1.17084 5.41039 1.25515 5.28392 1.65652L5.03995 2.40852L4.88477 2.88752H5.38611L5.54227 2.40852L5.74058 1.80084C5.78817 1.64981 5.83127 1.64981 5.88108 1.64981H10.118C10.1678 1.64981 10.2109 1.64981 10.2585 1.80118L10.444 2.40852L10.5902 2.88752H11.0938L10.9463 2.40856Z"
                fill="#375E7D" />
            <path fill-rule="evenodd" clip-rule="evenodd"
                d="M1.69199 14.15H14.1896L15.1496 12.5732V5.42492L8.00009 4.68298L0.850586 5.42492V12.5732L1.69199 14.15Z"
                fill="#F9F7F8" />
            <path fill-rule="evenodd" clip-rule="evenodd"
                d="M2.03418 2.64791L2.77793 3.05035L3.61659 2.64791V1.98904C3.61659 1.62582 3.31999 1.32922 2.9568 1.32922H2.69399C2.3308 1.32922 2.03421 1.62582 2.03421 1.98904L2.03418 2.64791Z"
                fill="#A1D4FF" />
            <path fill-rule="evenodd" clip-rule="evenodd"
                d="M12.3838 1.98904V2.64791L13.2507 3.08688L13.9662 2.64791V1.98904C13.9662 1.62582 13.6687 1.32922 13.3064 1.32922H13.0427C12.6804 1.32922 12.3838 1.62582 12.3838 1.98904Z"
                fill="#F37C7C" />
            <path fill-rule="evenodd" clip-rule="evenodd"
                d="M0.447477 14.8291H15.4345C15.555 14.8291 15.6545 14.7306 15.6545 14.6092V13.7632V13.0779C15.6545 12.8005 15.4273 12.5732 15.1498 12.5732H14.6944C14.417 12.5732 14.1898 12.8005 14.1898 13.0779V13.5433H1.69223V13.0779C1.69223 12.8005 1.46501 12.5732 1.18666 12.5732H0.85082H0.732195C0.454789 12.5732 0.227539 12.8005 0.227539 13.0779V13.7632V14.6092C0.227539 14.7306 0.326102 14.8291 0.447477 14.8291Z"
                fill="#375E7D" />
            <path fill-rule="evenodd" clip-rule="evenodd"
                d="M7.65954 9.91574C7.87126 9.91574 7.92876 9.98509 7.88038 10.1841L7.50257 11.7382C7.42957 12.0421 7.59382 11.9554 7.76082 11.7382L9.53029 9.42568C9.69638 9.20849 9.72923 9.10809 9.4372 9.10809H8.28645C8.08295 9.10809 8.05829 9.07431 8.10395 8.88724L8.49451 7.28474C8.60035 6.84943 8.40235 7.06756 8.23626 7.28565L6.46588 9.59724C6.29979 9.81443 6.27788 9.91574 6.55988 9.91574H7.65954Z"
                fill="#FFD772" />
            <path fill-rule="evenodd" clip-rule="evenodd"
                d="M0.850586 6.44886H13.9258V13.5433H14.1895V13.0779C14.1895 12.8005 14.4167 12.5733 14.6942 12.5733H15.1496V5.42493H13.8254H0.850586V6.44886Z"
                fill="#E5E4EC" />
            <path fill-rule="evenodd" clip-rule="evenodd"
                d="M14.9424 13.7632V14.6092C14.9424 14.7306 14.8438 14.8291 14.7224 14.8291H15.4342C15.5547 14.8291 15.6542 14.7306 15.6542 14.6092V13.7632V13.0779C15.6542 12.8005 15.427 12.5732 15.1495 12.5732H14.6942C14.6503 12.5732 14.6075 12.5787 14.5664 12.5897C14.7827 12.6463 14.9424 12.8443 14.9424 13.0779V13.5433V13.7632Z"
                fill="#2B4D66" />
            <path fill-rule="evenodd" clip-rule="evenodd"
                d="M1.15042 4.13908L8.39161 4.68298L14.8489 4.13908V3.39348C14.8489 2.98373 14.5131 2.64789 14.1034 2.64789H13.9656C10.5152 2.64789 7.06567 2.64789 3.61617 2.64789H2.03377H1.89595C1.4862 2.64789 1.15039 2.98373 1.15039 3.39348L1.15042 4.13908Z"
                fill="#FFD772" />
            <path fill-rule="evenodd" clip-rule="evenodd"
                d="M13.8251 4.13908H14.849V3.39348C14.849 2.98373 14.5132 2.64789 14.1035 2.64789H13.9657H12.5713C12.981 2.64789 13.3169 2.98373 13.3169 3.39348V4.13908H13.8251Z"
                fill="#FBBA58" />
            <path fill-rule="evenodd" clip-rule="evenodd"
                d="M0.8505 5.42488H15.1495H15.3566C15.6149 5.42488 15.8385 5.27157 15.9407 5.05163C15.979 4.96951 16 4.87823 16 4.78241C16 4.6866 15.979 4.59532 15.9407 4.51319C15.8384 4.29326 15.6149 4.13904 15.3566 4.13904H14.8492H1.15075H0.642437C0.289281 4.13907 0 4.42835 0 4.78244C0 5.13563 0.289281 5.42491 0.642437 5.42491H0.8505V5.42488Z"
                fill="#375E7D" />
            <path fill-rule="evenodd" clip-rule="evenodd"
                d="M13.8252 5.42488H15.1493H15.3565C15.6147 5.42488 15.8383 5.27157 15.9405 5.05163C15.9788 4.96951 15.9998 4.87823 15.9998 4.78241C15.9998 4.6866 15.9788 4.59532 15.9405 4.51319C15.8383 4.29326 15.6147 4.13904 15.3565 4.13904H14.8491H13.8252C14.0825 4.13904 14.3061 4.29326 14.4083 4.51319C14.4467 4.59532 14.4676 4.6866 14.4676 4.78241C14.4676 4.87823 14.4466 4.96951 14.4083 5.05163C14.3061 5.27157 14.0825 5.42488 13.8252 5.42488Z"
                fill="#2B4D66" />
            <path fill-rule="evenodd" clip-rule="evenodd"
                d="M2.91916 2.64791H3.61634V1.98904C3.61634 1.62582 3.31975 1.32922 2.95656 1.32922H2.69375C2.618 1.32922 2.545 1.342 2.47656 1.36572C2.73391 1.45607 2.91916 1.70157 2.91916 1.98904V2.64791Z"
                fill="#75CEF8" />
            <path fill-rule="evenodd" clip-rule="evenodd"
                d="M13.2688 2.64791H13.966V1.98904C13.966 1.62582 13.6685 1.32922 13.3062 1.32922H13.0425C12.9667 1.32922 12.8937 1.342 12.8262 1.36572C13.0826 1.45607 13.2688 1.70157 13.2688 1.98904V2.64791Z"
                fill="#E6646E" />
            <path
                d="M13.1731 7.90859H12.8834V7.61877C12.8834 7.48649 12.7762 7.37927 12.6439 7.37927C12.5116 7.37927 12.4044 7.48649 12.4044 7.61877V7.90859H12.1155C11.9832 7.90859 11.876 8.0158 11.876 8.14809C11.876 8.28037 11.9832 8.38759 12.1155 8.38759H12.4044V8.6774C12.4044 8.80968 12.5116 8.9169 12.6439 8.9169C12.7762 8.9169 12.8834 8.80968 12.8834 8.6774V8.38759H13.1731C13.3054 8.38759 13.4126 8.28037 13.4126 8.14809C13.4126 8.0158 13.3054 7.90859 13.1731 7.90859Z"
                fill="#375E7D" />
            <path
                d="M3.55838 8.38757H2.64673C2.51445 8.38757 2.40723 8.28035 2.40723 8.14807C2.40723 8.01579 2.51445 7.90857 2.64673 7.90857H3.55841C3.6907 7.90857 3.79791 8.01579 3.79791 8.14807C3.79788 8.28032 3.69066 8.38757 3.55838 8.38757Z"
                fill="#375E7D" />
        </svg>
        <svg id="edit" width="18" height="18" viewBox="0 0 18 18" fill="none"
            xmlns="http://www.w3.org/2000/svg">
            <path d="M10.2744 14.9233H15.0572" stroke="#637381" stroke-width="1.5"
                stroke-linecap="round" stroke-linejoin="round" />
            <path fill-rule="evenodd" clip-rule="evenodd"
                d="M9.64104 3.7167C10.1938 3.01245 11.087 3.0492 11.792 3.60195L12.8345 4.41945C13.5395 4.9722 13.7893 5.82945 13.2365 6.5352L7.01979 14.4665C6.81204 14.732 6.49479 14.8887 6.15729 14.8925L3.75954 14.9232L3.21654 12.587C3.14004 12.2592 3.21654 11.9142 3.42429 11.648L9.64104 3.7167Z"
                stroke="#637381" stroke-width="1.5" stroke-linecap="round" stroke-linejoin="round" />
            <path d="M8.47705 5.20215L12.0726 8.02065" stroke="#637381" stroke-width="1.5"
                stroke-linecap="round" stroke-linejoin="round" />
        </svg>

        <svg id="x" width="24" height="24" viewBox="0 0 24 24" fill="none"
            xmlns="http://www.w3.org/2000/svg">
            <path
                d="M12 22C17.5228 22 22 17.5228 22 12C22 6.47715 17.5228 2 12 2C6.47715 2 2 6.47715 2 12C2 17.5228 6.47715 22 12 22Z"
                stroke="#FF595A" stroke-width="2" stroke-linecap="round" stroke-linejoin="round" />
            <path d="M15 9L9 15" stroke="#FF595A" stroke-width="2" stroke-linecap="round"
                stroke-linejoin="round" />
            <path d="M9 9L15 15" stroke="#FF595A" stroke-width="2" stroke-linecap="round"
                stroke-linejoin="round" />
        </svg>
        <svg id="snack" width="24" height="24" viewBox="0 0 24 24" fill="none"
            xmlns="http://www.w3.org/2000/svg">
            <path fill-rule="evenodd" clip-rule="evenodd"
                d="M2 12C2 6.47715 6.47715 2 12 2C14.6522 2 17.1957 3.05357 19.0711 4.92893C20.9464 6.8043 22 9.34784 22 12C22 17.5228 17.5228 22 12 22C6.47715 22 2 17.5228 2 12ZM11.73 15.61L16.3 9.61V9.58C16.5179 9.29419 16.5668 8.91382 16.4283 8.58218C16.2897 8.25054 15.9848 8.01801 15.6283 7.97218C15.2718 7.92635 14.9179 8.07419 14.7 8.36L10.92 13.36L9.29 11.28C9.07028 10.9978 8.71668 10.8542 8.36239 10.9033C8.00811 10.9525 7.70696 11.1869 7.57239 11.5183C7.43783 11.8497 7.49028 12.2278 7.71 12.51L10.15 15.62C10.3408 15.8615 10.6322 16.0017 10.94 16C11.2495 15.9993 11.5412 15.8552 11.73 15.61Z"
                fill="#36B37E" />
        </svg>
        <svg id="calendar-blank" width="20" height="20" viewBox="0 0 20 20" fill="none"
            xmlns="http://www.w3.org/2000/svg">
            <path
                d="M15.8333 3.3335H4.16667C3.24619 3.3335 2.5 4.07969 2.5 5.00016V16.6668C2.5 17.5873 3.24619 18.3335 4.16667 18.3335H15.8333C16.7538 18.3335 17.5 17.5873 17.5 16.6668V5.00016C17.5 4.07969 16.7538 3.3335 15.8333 3.3335Z"
                stroke="#525252" stroke-width="2" stroke-linecap="round" stroke-linejoin="round" />
            <path d="M13.3335 1.6665V4.99984" stroke="#525252" stroke-width="2"
                stroke-linecap="round" stroke-linejoin="round" />
            <path d="M6.6665 1.6665V4.99984" stroke="#525252" stroke-width="2"
                stroke-linecap="round" stroke-linejoin="round" />
            <path d="M2.5 8.3335H17.5" stroke="#525252" stroke-width="2" stroke-linecap="round"
                stroke-linejoin="round" />
        </svg>
        <svg id="time" width="20" height="20" viewBox="0 0 20 20" fill="none"
            xmlns="http://www.w3.org/2000/svg">
            <g clip-path="url(#clip0_487_14739)">
                <path
                    d="M9.99984 18.3332C14.6022 18.3332 18.3332 14.6022 18.3332 9.99984C18.3332 5.39746 14.6022 1.6665 9.99984 1.6665C5.39746 1.6665 1.6665 5.39746 1.6665 9.99984C1.6665 14.6022 5.39746 18.3332 9.99984 18.3332Z"
                    stroke="#525252" stroke-width="2" stroke-linecap="round" stroke-linejoin="round" />
                <path d="M10 5V10L13.3333 11.6667" stroke="#525252" stroke-width="2"
                    stroke-linecap="round" stroke-linejoin="round" />
            </g>
            <defs>
                <clipPath id="clip0_487_14739">
                    <rect width="20" height="20" fill="white" />
                </clipPath>
            </defs>
        </svg>
        <svg id="marker_map" width="12" height="15" viewBox="0 0 12 15" fill="none"
            xmlns="http://www.w3.org/2000/svg">
            <g opacity="0.604143">
                <path fill-rule="evenodd" clip-rule="evenodd"
                    d="M6.04419 13.2916C5.94853 13.3799 5.80145 13.3799 5.70579 13.2916L5.7058 13.2916C2.48527 10.3205 0.875 7.52473 0.875 4.90418C0.875 2.19567 3.11358 0 5.875 0C8.63642 0 10.875 2.19567 10.875 4.90418C10.875 7.52473 9.26473 10.3206 6.04419 13.2916ZM3.55115 12.2246C1.1657 12.3147 0.45283 12.6888 0.45283 13.287C0.45283 13.8556 2.82826 14.3696 6 14.3696C9.17174 14.3696 11.5472 13.8556 11.5472 13.287C11.5472 12.7198 10.6614 12.3174 8.22963 12.2249L8.47405 11.7922C10.926 11.7922 12 12.3669 12 13.287C12 14.2611 9.49727 14.8026 6 14.8026C2.50273 14.8026 0 14.2611 0 13.287C0 12.3471 0.943182 11.8907 3.30686 11.7919L3.55115 12.2246ZM7.75 4.8924C7.75 5.93163 6.91053 6.77409 5.875 6.77409C4.83947 6.77409 4 5.93163 4 4.8924C4 3.85317 4.83947 3.01071 5.875 3.01071C6.91053 3.01071 7.75 3.85317 7.75 4.8924Z"
                    fill="#616161" />
            </g>
        </svg>
        <svg id="morning" width="58" height="16" viewBox="0 0 58 16" fill="none"
            xmlns="http://www.w3.org/2000/svg">
            <path
                d="M0.180664 15.98H14.1807V1.98H0.180664V15.98ZM19.8399 12.438C19.8399 12.9233 19.9659 13.2967 20.2179 13.558C20.4699 13.81 20.8619 13.936 21.3939 13.936C21.9073 13.936 22.2899 13.8147 22.5419 13.572C22.7939 13.3293 22.9199 12.9047 22.9199 12.298V10.87C22.9199 10.5247 22.8546 10.2773 22.7239 10.128C22.5933 9.97867 22.4066 9.904 22.1639 9.904H21.9259L21.7019 9.316L23.1859 7.16H24.7959L23.2139 9.204C23.5873 9.30667 23.8813 9.50733 24.0959 9.806C24.3199 10.1047 24.4319 10.464 24.4319 10.884V12.284C24.4319 13.208 24.1893 13.9173 23.7039 14.412C23.2279 14.9067 22.4579 15.154 21.3939 15.154C20.3393 15.154 19.5646 14.9067 19.0699 14.412C18.5846 13.9173 18.3419 13.2547 18.3419 12.424V11.528C18.3419 11.2387 18.4119 10.982 18.5519 10.758C18.6919 10.5247 18.8413 10.31 18.9999 10.114C19.1679 9.90867 19.3219 9.71733 19.4619 9.54C19.6019 9.36267 19.6719 9.18067 19.6719 8.994V8.728C19.6719 8.504 19.5599 8.392 19.3359 8.392H18.4259V7.16H19.5179C20.1246 7.16 20.5399 7.286 20.7639 7.538C20.9973 7.79 21.1139 8.14467 21.1139 8.602V8.98C21.1139 9.24133 21.0486 9.47933 20.9179 9.694C20.7873 9.90867 20.6379 10.114 20.4699 10.31C20.3113 10.506 20.1666 10.702 20.0359 10.898C19.9053 11.094 19.8399 11.304 19.8399 11.528V12.438ZM23.0256 2.932V0.845999H24.4116V2.932H23.0256ZM26.1756 13.222C26.5023 13.418 26.8523 13.5813 27.2256 13.712C27.6083 13.8427 28.0096 13.908 28.4296 13.908C29.1203 13.908 29.6569 13.6747 30.0396 13.208C30.4316 12.7413 30.6276 12.0413 30.6276 11.108C30.6276 10.1187 30.4316 9.39533 30.0396 8.938C29.6569 8.48067 29.1203 8.252 28.4296 8.252C27.9816 8.252 27.5803 8.31733 27.2256 8.448C26.8709 8.57867 26.5163 8.76067 26.1616 8.994L25.8116 7.832C26.1943 7.58933 26.6236 7.39333 27.0996 7.244C27.5756 7.08533 28.0656 7.006 28.5696 7.006C29.7176 7.006 30.5996 7.356 31.2156 8.056C31.8316 8.756 32.1396 9.74067 32.1396 11.01C32.1396 12.382 31.8223 13.418 31.1876 14.118C30.5529 14.8087 29.6569 15.154 28.4996 15.154C27.4169 15.154 26.5256 14.9113 25.8256 14.426L26.1756 13.222ZM35.2244 15L32.8584 7.16H34.3704L36.3584 13.754H36.5264C36.7877 13.754 37.0397 13.6887 37.2824 13.558C37.5251 13.4273 37.7397 13.236 37.9264 12.984C38.1131 12.732 38.2624 12.4287 38.3744 12.074C38.4864 11.71 38.5424 11.304 38.5424 10.856C38.5424 9.91333 38.3884 9.246 38.0804 8.854C37.7817 8.45267 37.4037 8.252 36.9464 8.252C36.6384 8.252 36.3397 8.308 36.0504 8.42L35.8264 7.272C35.9944 7.188 36.1951 7.12267 36.4284 7.076C36.6711 7.02933 36.9044 7.006 37.1284 7.006C37.5484 7.006 37.9357 7.09467 38.2904 7.272C38.6544 7.44 38.9671 7.692 39.2284 8.028C39.4897 8.35467 39.6904 8.756 39.8304 9.232C39.9797 9.708 40.0544 10.2493 40.0544 10.856C40.0544 11.5 39.9611 12.0787 39.7744 12.592C39.5971 13.096 39.3497 13.53 39.0324 13.894C38.7151 14.2487 38.3371 14.524 37.8984 14.72C37.4691 14.9067 36.9977 15 36.4844 15H35.2244ZM43.2108 7.16V15H41.6988V7.16H43.2108ZM46.5274 12.438C46.5274 12.9233 46.6534 13.2967 46.9054 13.558C47.1574 13.81 47.5494 13.936 48.0814 13.936C48.5948 13.936 48.9774 13.8147 49.2294 13.572C49.4814 13.3293 49.6074 12.9047 49.6074 12.298V10.87C49.6074 10.5247 49.5421 10.2773 49.4114 10.128C49.2808 9.97867 49.0941 9.904 48.8514 9.904H48.6134L48.3894 9.316L49.8734 7.16H51.4834L49.9014 9.204C50.2748 9.30667 50.5688 9.50733 50.7834 9.806C51.0074 10.1047 51.1194 10.464 51.1194 10.884V12.284C51.1194 13.208 50.8768 13.9173 50.3914 14.412C49.9154 14.9067 49.1454 15.154 48.0814 15.154C47.0268 15.154 46.2521 14.9067 45.7574 14.412C45.2721 13.9173 45.0294 13.2547 45.0294 12.424V11.528C45.0294 11.2387 45.0994 10.982 45.2394 10.758C45.3794 10.5247 45.5288 10.31 45.6874 10.114C45.8554 9.90867 46.0094 9.71733 46.1494 9.54C46.2894 9.36267 46.3594 9.18067 46.3594 8.994V8.728C46.3594 8.504 46.2474 8.392 46.0234 8.392H45.1134V7.16H46.2054C46.8121 7.16 47.2274 7.286 47.4514 7.538C47.6848 7.79 47.8014 8.14467 47.8014 8.602V8.98C47.8014 9.24133 47.7361 9.47933 47.6054 9.694C47.4748 9.90867 47.3254 10.114 47.1574 10.31C46.9988 10.506 46.8541 10.702 46.7234 10.898C46.5928 11.094 46.5274 11.304 46.5274 11.528V12.438ZM50.0491 1.602C50.0491 1.742 50.1144 1.812 50.2451 1.812H52.1211V2.932H49.6011C49.4144 2.932 49.2604 2.876 49.1391 2.764C49.0084 2.652 48.9431 2.50267 48.9431 2.316V1.966C48.9431 1.89133 48.9338 1.83533 48.9151 1.798C48.8871 1.76067 48.8358 1.742 48.7611 1.742H47.9911V0.608H49.2091C49.4704 0.608 49.6758 0.668666 49.8251 0.789999C49.9744 0.901999 50.0491 1.07933 50.0491 1.322V1.602ZM56.3211 15V9.96C56.3211 8.82133 55.8311 8.252 54.8511 8.252C54.4218 8.252 54.0064 8.33133 53.6051 8.49C53.2131 8.64867 52.8678 8.83533 52.5691 9.05L52.1771 7.944C52.5038 7.70133 52.9191 7.48667 53.4231 7.3C53.9271 7.104 54.4498 7.006 54.9911 7.006C55.9244 7.006 56.6291 7.272 57.1051 7.804C57.5904 8.336 57.8331 9.07333 57.8331 10.016V15H56.3211Z"
                fill="black" />
        </svg>


        <svg id="noon" width="64" height="16" viewBox="0 0 64 16" fill="none"
            xmlns="http://www.w3.org/2000/svg">
            <path
                d="M0.453125 15.98H14.4531V1.98H0.453125V15.98ZM20.1124 12.438C20.1124 12.9233 20.2384 13.2967 20.4904 13.558C20.7424 13.81 21.1344 13.936 21.6664 13.936C22.1797 13.936 22.5624 13.8147 22.8144 13.572C23.0664 13.3293 23.1924 12.9047 23.1924 12.298V10.87C23.1924 10.5247 23.1271 10.2773 22.9964 10.128C22.8657 9.97867 22.6791 9.904 22.4364 9.904H22.1984L21.9744 9.316L23.4584 7.16H25.0684L23.4864 9.204C23.8597 9.30667 24.1537 9.50733 24.3684 9.806C24.5924 10.1047 24.7044 10.464 24.7044 10.884V12.284C24.7044 13.208 24.4617 13.9173 23.9764 14.412C23.5004 14.9067 22.7304 15.154 21.6664 15.154C20.6117 15.154 19.8371 14.9067 19.3424 14.412C18.8571 13.9173 18.6144 13.2547 18.6144 12.424V11.528C18.6144 11.2387 18.6844 10.982 18.8244 10.758C18.9644 10.5247 19.1137 10.31 19.2724 10.114C19.4404 9.90867 19.5944 9.71733 19.7344 9.54C19.8744 9.36267 19.9444 9.18067 19.9444 8.994V8.728C19.9444 8.504 19.8324 8.392 19.6084 8.392H18.6984V7.16H19.7904C20.3971 7.16 20.8124 7.286 21.0364 7.538C21.2697 7.79 21.3864 8.14467 21.3864 8.602V8.98C21.3864 9.24133 21.3211 9.47933 21.1904 9.694C21.0597 9.90867 20.9104 10.114 20.7424 10.31C20.5837 10.506 20.4391 10.702 20.3084 10.898C20.1777 11.094 20.1124 11.304 20.1124 11.528V12.438ZM23.2981 2.932V0.845999H24.6841V2.932H23.2981ZM26.4481 13.222C26.7747 13.418 27.1247 13.5813 27.4981 13.712C27.8807 13.8427 28.2821 13.908 28.7021 13.908C29.3927 13.908 29.9294 13.6747 30.3121 13.208C30.7041 12.7413 30.9001 12.0413 30.9001 11.108C30.9001 10.1187 30.7041 9.39533 30.3121 8.938C29.9294 8.48067 29.3927 8.252 28.7021 8.252C28.2541 8.252 27.8527 8.31733 27.4981 8.448C27.1434 8.57867 26.7887 8.76067 26.4341 8.994L26.0841 7.832C26.4667 7.58933 26.8961 7.39333 27.3721 7.244C27.8481 7.08533 28.3381 7.006 28.8421 7.006C29.9901 7.006 30.8721 7.356 31.4881 8.056C32.1041 8.756 32.4121 9.74067 32.4121 11.01C32.4121 12.382 32.0947 13.418 31.4601 14.118C30.8254 14.8087 29.9294 15.154 28.7721 15.154C27.6894 15.154 26.7981 14.9113 26.0981 14.426L26.4481 13.222ZM35.4969 15L33.1309 7.16H34.6429L36.6309 13.754H36.7989C37.0602 13.754 37.3122 13.6887 37.5549 13.558C37.7975 13.4273 38.0122 13.236 38.1989 12.984C38.3855 12.732 38.5349 12.4287 38.6469 12.074C38.7589 11.71 38.8149 11.304 38.8149 10.856C38.8149 9.91333 38.6609 9.246 38.3529 8.854C38.0542 8.45267 37.6762 8.252 37.2189 8.252C36.9109 8.252 36.6122 8.308 36.3229 8.42L36.0989 7.272C36.2669 7.188 36.4675 7.12267 36.7009 7.076C36.9435 7.02933 37.1769 7.006 37.4009 7.006C37.8209 7.006 38.2082 7.09467 38.5629 7.272C38.9269 7.44 39.2395 7.692 39.5009 8.028C39.7622 8.35467 39.9629 8.756 40.1029 9.232C40.2522 9.708 40.3269 10.2493 40.3269 10.856C40.3269 11.5 40.2335 12.0787 40.0469 12.592C39.8695 13.096 39.6222 13.53 39.3049 13.894C38.9875 14.2487 38.6095 14.524 38.1709 14.72C37.7415 14.9067 37.2702 15 36.7569 15H35.4969ZM45.2472 15.154C44.1832 15.154 43.3619 14.8973 42.7832 14.384C42.2139 13.8613 41.9292 13.0913 41.9292 12.074V7.16H43.4412V12.074C43.4412 12.6527 43.5952 13.1053 43.9032 13.432C44.2112 13.7493 44.6592 13.908 45.2472 13.908C45.8352 13.908 46.2832 13.7493 46.5912 13.432C46.8992 13.1053 47.0532 12.6527 47.0532 12.074V7.16H48.5652V12.074C48.5652 13.0913 48.2759 13.8613 47.6972 14.384C47.1279 14.8973 46.3112 15.154 45.2472 15.154ZM47.1828 2.932V0.845999H48.5688V2.932H47.1828ZM53.7908 15V9.96C53.7908 8.82133 53.3008 8.252 52.3208 8.252C51.8915 8.252 51.4762 8.33133 51.0748 8.49C50.6828 8.64867 50.3375 8.83533 50.0388 9.05L49.6468 7.944C49.9735 7.70133 50.3888 7.48667 50.8928 7.3C51.3968 7.104 51.9195 7.006 52.4608 7.006C53.3942 7.006 54.0988 7.272 54.5748 7.804C55.0602 8.336 55.3028 9.07333 55.3028 10.016V15H53.7908ZM62.0571 7.16H63.5691V12.032C63.5691 12.4987 63.5037 12.9233 63.3731 13.306C63.2424 13.6887 63.0371 14.02 62.7571 14.3C62.4771 14.5707 62.1131 14.7807 61.6651 14.93C61.2171 15.0793 60.6757 15.154 60.0411 15.154C59.0797 15.154 58.3097 14.9347 57.7311 14.496C57.1617 14.0573 56.8771 13.418 56.8771 12.578C56.8771 12.1207 56.9984 11.7287 57.2411 11.402C57.4931 11.0753 57.8244 10.8607 58.2351 10.758C58.0577 10.7113 57.8851 10.6367 57.7171 10.534C57.5584 10.422 57.4137 10.2867 57.2831 10.128C57.1617 9.96933 57.0637 9.78733 56.9891 9.582C56.9144 9.37667 56.8771 9.15267 56.8771 8.91C56.8771 8.64867 56.9237 8.406 57.0171 8.182C57.1104 7.958 57.2457 7.762 57.4231 7.594C57.6004 7.426 57.8151 7.29533 58.0671 7.202C58.3284 7.10867 58.6224 7.062 58.9491 7.062C59.2571 7.062 59.5277 7.09 59.7611 7.146C59.9944 7.19267 60.1997 7.25333 60.3771 7.328L60.2091 8.518C60.0784 8.462 59.9337 8.41533 59.7751 8.378C59.6257 8.34067 59.4764 8.322 59.3271 8.322C59.0004 8.322 58.7531 8.39667 58.5851 8.546C58.4171 8.69533 58.3331 8.89133 58.3331 9.134C58.3331 9.29267 58.3657 9.43267 58.4311 9.554C58.4964 9.67533 58.5804 9.778 58.6831 9.862C58.7951 9.946 58.9164 10.0113 59.0471 10.058C59.1871 10.0953 59.3224 10.114 59.4531 10.114H60.5871L60.7131 11.332H59.6771C59.2851 11.332 58.9677 11.4393 58.7251 11.654C58.4824 11.8687 58.3611 12.158 58.3611 12.522C58.3611 12.746 58.4077 12.9467 58.5011 13.124C58.5944 13.292 58.7157 13.4367 58.8651 13.558C59.0237 13.67 59.2057 13.7587 59.4111 13.824C59.6257 13.88 59.8497 13.908 60.0831 13.908C60.7457 13.908 61.2404 13.7447 61.5671 13.418C61.8937 13.082 62.0571 12.6153 62.0571 12.018V7.16Z"
                fill="black" />
        </svg>
        <svg id="evening" width="60" height="16" viewBox="0 0 60 16" fill="none"
            xmlns="http://www.w3.org/2000/svg">
            <path
                d="M0.0527344 15.98H14.0527V1.98H0.0527344V15.98ZM19.712 12.438C19.712 12.9233 19.838 13.2967 20.09 13.558C20.342 13.81 20.734 13.936 21.266 13.936C21.7793 13.936 22.162 13.8147 22.414 13.572C22.666 13.3293 22.792 12.9047 22.792 12.298V10.87C22.792 10.5247 22.7267 10.2773 22.596 10.128C22.4653 9.97867 22.2787 9.904 22.036 9.904H21.798L21.574 9.316L23.058 7.16H24.668L23.086 9.204C23.4593 9.30667 23.7533 9.50733 23.968 9.806C24.192 10.1047 24.304 10.464 24.304 10.884V12.284C24.304 13.208 24.0613 13.9173 23.576 14.412C23.1 14.9067 22.33 15.154 21.266 15.154C20.2113 15.154 19.4367 14.9067 18.942 14.412C18.4567 13.9173 18.214 13.2547 18.214 12.424V11.528C18.214 11.2387 18.284 10.982 18.424 10.758C18.564 10.5247 18.7133 10.31 18.872 10.114C19.04 9.90867 19.194 9.71733 19.334 9.54C19.474 9.36267 19.544 9.18067 19.544 8.994V8.728C19.544 8.504 19.432 8.392 19.208 8.392H18.298V7.16H19.39C19.9967 7.16 20.412 7.286 20.636 7.538C20.8693 7.79 20.986 8.14467 20.986 8.602V8.98C20.986 9.24133 20.9207 9.47933 20.79 9.694C20.6593 9.90867 20.51 10.114 20.342 10.31C20.1833 10.506 20.0387 10.702 19.908 10.898C19.7773 11.094 19.712 11.304 19.712 11.528V12.438ZM22.8977 2.932V0.845999H24.2837V2.932H22.8977ZM26.0477 13.222C26.3743 13.418 26.7243 13.5813 27.0977 13.712C27.4803 13.8427 27.8817 13.908 28.3017 13.908C28.9923 13.908 29.529 13.6747 29.9117 13.208C30.3037 12.7413 30.4997 12.0413 30.4997 11.108C30.4997 10.1187 30.3037 9.39533 29.9117 8.938C29.529 8.48067 28.9923 8.252 28.3017 8.252C27.8537 8.252 27.4523 8.31733 27.0977 8.448C26.743 8.57867 26.3883 8.76067 26.0337 8.994L25.6837 7.832C26.0663 7.58933 26.4957 7.39333 26.9717 7.244C27.4477 7.08533 27.9377 7.006 28.4417 7.006C29.5897 7.006 30.4717 7.356 31.0877 8.056C31.7037 8.756 32.0117 9.74067 32.0117 11.01C32.0117 12.382 31.6943 13.418 31.0597 14.118C30.425 14.8087 29.529 15.154 28.3717 15.154C27.289 15.154 26.3977 14.9113 25.6977 14.426L26.0477 13.222ZM35.0965 15L32.7305 7.16H34.2425L36.2305 13.754H36.3985C36.6598 13.754 36.9118 13.6887 37.1545 13.558C37.3972 13.4273 37.6118 13.236 37.7985 12.984C37.9852 12.732 38.1345 12.4287 38.2465 12.074C38.3585 11.71 38.4145 11.304 38.4145 10.856C38.4145 9.91333 38.2605 9.246 37.9525 8.854C37.6538 8.45267 37.2758 8.252 36.8185 8.252C36.5105 8.252 36.2118 8.308 35.9225 8.42L35.6985 7.272C35.8665 7.188 36.0672 7.12267 36.3005 7.076C36.5432 7.02933 36.7765 7.006 37.0005 7.006C37.4205 7.006 37.8078 7.09467 38.1625 7.272C38.5265 7.44 38.8392 7.692 39.1005 8.028C39.3618 8.35467 39.5625 8.756 39.7025 9.232C39.8518 9.708 39.9265 10.2493 39.9265 10.856C39.9265 11.5 39.8332 12.0787 39.6465 12.592C39.4692 13.096 39.2218 13.53 38.9045 13.894C38.5872 14.2487 38.2092 14.524 37.7705 14.72C37.3412 14.9067 36.8698 15 36.3565 15H35.0965ZM43.0828 7.16V15H41.5708V7.16H43.0828ZM49.8715 7.16H51.3835V12.032C51.3835 12.4987 51.3182 12.9233 51.1875 13.306C51.0568 13.6887 50.8515 14.02 50.5715 14.3C50.2915 14.5707 49.9275 14.7807 49.4795 14.93C49.0315 15.0793 48.4902 15.154 47.8555 15.154C46.8942 15.154 46.1242 14.9347 45.5455 14.496C44.9762 14.0573 44.6915 13.418 44.6915 12.578C44.6915 12.1207 44.8128 11.7287 45.0555 11.402C45.3075 11.0753 45.6388 10.8607 46.0495 10.758C45.8722 10.7113 45.6995 10.6367 45.5315 10.534C45.3728 10.422 45.2282 10.2867 45.0975 10.128C44.9762 9.96933 44.8782 9.78733 44.8035 9.582C44.7288 9.37667 44.6915 9.15267 44.6915 8.91C44.6915 8.64867 44.7382 8.406 44.8315 8.182C44.9248 7.958 45.0602 7.762 45.2375 7.594C45.4148 7.426 45.6295 7.29533 45.8815 7.202C46.1428 7.10867 46.4368 7.062 46.7635 7.062C47.0715 7.062 47.3422 7.09 47.5755 7.146C47.8088 7.19267 48.0142 7.25333 48.1915 7.328L48.0235 8.518C47.8928 8.462 47.7482 8.41533 47.5895 8.378C47.4402 8.34067 47.2908 8.322 47.1415 8.322C46.8148 8.322 46.5675 8.39667 46.3995 8.546C46.2315 8.69533 46.1475 8.89133 46.1475 9.134C46.1475 9.29267 46.1802 9.43267 46.2455 9.554C46.3108 9.67533 46.3948 9.778 46.4975 9.862C46.6095 9.946 46.7308 10.0113 46.8615 10.058C47.0015 10.0953 47.1368 10.114 47.2675 10.114H48.4015L48.5275 11.332H47.4915C47.0995 11.332 46.7822 11.4393 46.5395 11.654C46.2968 11.8687 46.1755 12.158 46.1755 12.522C46.1755 12.746 46.2222 12.9467 46.3155 13.124C46.4088 13.292 46.5302 13.4367 46.6795 13.558C46.8382 13.67 47.0202 13.7587 47.2255 13.824C47.4402 13.88 47.6642 13.908 47.8975 13.908C48.5602 13.908 49.0548 13.7447 49.3815 13.418C49.7082 13.082 49.8715 12.6153 49.8715 12.018V7.16ZM49.9253 6.138C49.6827 6.138 49.468 6.07733 49.2813 5.956C49.0947 5.82533 48.95 5.65733 48.8473 5.452C48.7633 5.66667 48.6187 5.84867 48.4133 5.998C48.1987 6.138 47.928 6.208 47.6013 6.208C47.088 6.208 46.6773 6.05867 46.3693 5.76C46.0613 5.46133 45.9073 5.074 45.9073 4.598C45.9073 4.38333 45.9493 4.178 46.0333 3.982C46.108 3.77667 46.2247 3.59467 46.3833 3.436C46.542 3.27733 46.7427 3.15133 46.9853 3.058C47.2187 2.96467 47.4987 2.918 47.8253 2.918H50.8773V3.996H47.8673C47.6247 3.996 47.4473 4.05667 47.3353 4.178C47.2233 4.29933 47.1673 4.444 47.1673 4.612C47.1673 4.78 47.2233 4.92467 47.3353 5.046C47.438 5.16733 47.578 5.228 47.7553 5.228C47.9327 5.228 48.082 5.172 48.2033 5.06C48.3247 4.93867 48.3993 4.79867 48.4273 4.64H49.2113C49.2487 4.77067 49.3233 4.87333 49.4353 4.948C49.538 5.02267 49.6827 5.06 49.8693 5.06H50.8913V6.138H49.9253ZM54.8533 12.228C54.8533 12.8253 54.9747 13.2547 55.2173 13.516C55.46 13.7773 55.8287 13.908 56.3233 13.908C56.762 13.908 57.1727 13.7727 57.5553 13.502C57.9473 13.222 58.2367 12.8813 58.4233 12.48V7.16H59.9353V15H58.5633L58.4233 13.95C58.1807 14.2767 57.854 14.5613 57.4433 14.804C57.042 15.0373 56.5473 15.154 55.9593 15.154C55.11 15.154 54.4613 14.916 54.0133 14.44C53.5653 13.964 53.3413 13.2407 53.3413 12.27V7.16H54.8533V12.228Z"
                fill="black" />
        </svg>

        <svg id="user_contact" width="24" height="24" viewBox="0 0 24 24" fill="none"
            xmlns="http://www.w3.org/2000/svg">
            <path
                d="M12 12C14.7614 12 17 9.76142 17 7C17 4.23858 14.7614 2 12 2C9.23858 2 7 4.23858 7 7C7 9.76142 9.23858 12 12 12Z"
                stroke="#858585" stroke-width="1.5" stroke-linecap="round" stroke-linejoin="round" />
            <path
                d="M20.5901 22C20.5901 18.13 16.7402 15 12.0002 15C7.26015 15 3.41016 18.13 3.41016 22"
                stroke="#858585" stroke-width="1.5" stroke-linecap="round" stroke-linejoin="round" />
        </svg>


        <svg id="phone_contact" width="24" height="24" viewBox="0 0 24 24" fill="none"
            xmlns="http://www.w3.org/2000/svg">
            <path
                d="M21.97 18.33C21.97 18.69 21.89 19.06 21.72 19.42C21.55 19.78 21.33 20.12 21.04 20.44C20.55 20.98 20.01 21.37 19.4 21.62C18.8 21.87 18.15 22 17.45 22C16.43 22 15.34 21.76 14.19 21.27C13.04 20.78 11.89 20.12 10.75 19.29C9.6 18.45 8.51 17.52 7.47 16.49C6.44 15.45 5.51 14.36 4.68 13.22C3.86 12.08 3.2 10.94 2.72 9.81C2.24 8.67 2 7.58 2 6.54C2 5.86 2.12 5.21 2.36 4.61C2.6 4 2.98 3.44 3.51 2.94C4.15 2.31 4.85 2 5.59 2C5.87 2 6.15 2.06 6.4 2.18C6.66 2.3 6.89 2.48 7.07 2.74L9.39 6.01C9.57 6.26 9.7 6.49 9.79 6.71C9.88 6.92 9.93 7.13 9.93 7.32C9.93 7.56 9.86 7.8 9.72 8.03C9.59 8.26 9.4 8.5 9.16 8.74L8.4 9.53C8.29 9.64 8.24 9.77 8.24 9.93C8.24 10.01 8.25 10.08 8.27 10.16C8.3 10.24 8.33 10.3 8.35 10.36C8.53 10.69 8.84 11.12 9.28 11.64C9.73 12.16 10.21 12.69 10.73 13.22C11.27 13.75 11.79 14.24 12.32 14.69C12.84 15.13 13.27 15.43 13.61 15.61C13.66 15.63 13.72 15.66 13.79 15.69C13.87 15.72 13.95 15.73 14.04 15.73C14.21 15.73 14.34 15.67 14.45 15.56L15.21 14.81C15.46 14.56 15.7 14.37 15.93 14.25C16.16 14.11 16.39 14.04 16.64 14.04C16.83 14.04 17.03 14.08 17.25 14.17C17.47 14.26 17.7 14.39 17.95 14.56L21.26 16.91C21.52 17.09 21.7 17.3 21.81 17.55C21.91 17.8 21.97 18.05 21.97 18.33Z"
                stroke="#858585" stroke-width="1.5" stroke-miterlimit="10" />
        </svg>

        <svg id="edit-color" width="20" height="20" viewBox="0 0 20 20" fill="none"
            xmlns="http://www.w3.org/2000/svg">
            <path d="M11.417 16.5818H16.7312" stroke="#FF595A" stroke-width="1.5"
                stroke-linecap="round" stroke-linejoin="round" />
            <path fill-rule="evenodd" clip-rule="evenodd"
                d="M10.7126 4.12975C11.3268 3.34725 12.3193 3.38809 13.1026 4.00225L14.2609 4.91059C15.0443 5.52475 15.3218 6.47725 14.7076 7.26142L7.80009 16.0739C7.56925 16.3689 7.21676 16.5431 6.84176 16.5473L4.17759 16.5814L3.57426 13.9856C3.48926 13.6214 3.57426 13.2381 3.80509 12.9423L10.7126 4.12975Z"
                stroke="#FF595A" stroke-width="1.5" stroke-linecap="round" stroke-linejoin="round" />
            <path d="M9.41895 5.78009L13.4139 8.91176" stroke="#FF595A" stroke-width="1.5"
                stroke-linecap="round" stroke-linejoin="round" />
        </svg>


    </defs>
</svg>