<svg width="36" height="36" viewBox="0 0 36 36" fill="none" xmlns="http://www.w3.org/2000/svg">
<path fill-rule="evenodd" clip-rule="evenodd" d="M32.349 17.4157C32.9395 16.8451 33.1479 16.0076 32.8932 15.229C32.6379 14.4505 31.9729 13.8948 31.1559 13.7768L23.8921 12.7302C23.5827 12.6856 23.3154 12.4932 23.1773 12.215L19.9298 5.68894C19.5652 4.95568 18.8251 4.5 18.0003 4.5C17.1761 4.5 16.436 4.95568 16.0714 5.68894L12.8233 12.2156C12.6852 12.4938 12.4173 12.6862 12.1079 12.7308L4.84407 13.7774C4.0277 13.8948 3.36211 14.4511 3.1068 15.2296C2.8521 16.0082 3.06055 16.8457 3.65105 17.4163L8.90669 22.4961C9.13076 22.7129 9.23348 23.0251 9.18062 23.33L7.94075 30.503C7.83082 31.1344 7.99781 31.7485 8.4099 32.2328C9.05026 32.9875 10.1682 33.2174 11.0621 32.7516L17.5582 29.3647C17.8297 29.2235 18.1715 29.2247 18.4424 29.3647L24.9391 32.7516C25.2551 32.9166 25.5921 33 25.9399 33C26.5749 33 27.1768 32.72 27.5907 32.2328C28.0034 31.7485 28.1698 31.1332 28.0599 30.503L26.8194 23.33C26.7665 23.0245 26.8692 22.7129 27.0933 22.4961L32.349 17.4157Z" fill="#FFC046"/>
</svg>
